G04*
G04 #@! TF.GenerationSoftware,Altium Limited,Altium Designer,19.0.10 (269)*
G04*
G04 Layer_Physical_Order=1*
G04 Layer_Color=255*
%FSLAX44Y44*%
%MOMM*%
G71*
G01*
G75*
%ADD10C,0.8000*%
%ADD11C,2.0000*%
G04:AMPARAMS|DCode=12|XSize=1.1mm|YSize=1.35mm|CornerRadius=0.1375mm|HoleSize=0mm|Usage=FLASHONLY|Rotation=0.000|XOffset=0mm|YOffset=0mm|HoleType=Round|Shape=RoundedRectangle|*
%AMROUNDEDRECTD12*
21,1,1.1000,1.0750,0,0,0.0*
21,1,0.8250,1.3500,0,0,0.0*
1,1,0.2750,0.4125,-0.5375*
1,1,0.2750,-0.4125,-0.5375*
1,1,0.2750,-0.4125,0.5375*
1,1,0.2750,0.4125,0.5375*
%
%ADD12ROUNDEDRECTD12*%
G04:AMPARAMS|DCode=13|XSize=1.1mm|YSize=1.35mm|CornerRadius=0.1375mm|HoleSize=0mm|Usage=FLASHONLY|Rotation=90.000|XOffset=0mm|YOffset=0mm|HoleType=Round|Shape=RoundedRectangle|*
%AMROUNDEDRECTD13*
21,1,1.1000,1.0750,0,0,90.0*
21,1,0.8250,1.3500,0,0,90.0*
1,1,0.2750,0.5375,0.4125*
1,1,0.2750,0.5375,-0.4125*
1,1,0.2750,-0.5375,-0.4125*
1,1,0.2750,-0.5375,0.4125*
%
%ADD13ROUNDEDRECTD13*%
G04:AMPARAMS|DCode=14|XSize=0.6mm|YSize=0.9mm|CornerRadius=0.15mm|HoleSize=0mm|Usage=FLASHONLY|Rotation=0.000|XOffset=0mm|YOffset=0mm|HoleType=Round|Shape=RoundedRectangle|*
%AMROUNDEDRECTD14*
21,1,0.6000,0.6000,0,0,0.0*
21,1,0.3000,0.9000,0,0,0.0*
1,1,0.3000,0.1500,-0.3000*
1,1,0.3000,-0.1500,-0.3000*
1,1,0.3000,-0.1500,0.3000*
1,1,0.3000,0.1500,0.3000*
%
%ADD14ROUNDEDRECTD14*%
%ADD15C,0.2540*%
%ADD16C,0.2500*%
%ADD17C,0.5000*%
%ADD18C,1.0000*%
%ADD19C,0.5080*%
%ADD20C,0.4000*%
%ADD21C,0.1500*%
%ADD22C,1.0000*%
%ADD23C,2.4000*%
%ADD24O,3.8000X2.5000*%
%ADD25C,3.2000*%
%ADD26C,1.1000*%
G04:AMPARAMS|DCode=27|XSize=8mm|YSize=8mm|CornerRadius=2mm|HoleSize=0mm|Usage=FLASHONLY|Rotation=0.000|XOffset=0mm|YOffset=0mm|HoleType=Round|Shape=RoundedRectangle|*
%AMROUNDEDRECTD27*
21,1,8.0000,4.0000,0,0,0.0*
21,1,4.0000,8.0000,0,0,0.0*
1,1,4.0000,2.0000,-2.0000*
1,1,4.0000,-2.0000,-2.0000*
1,1,4.0000,-2.0000,2.0000*
1,1,4.0000,2.0000,2.0000*
%
%ADD27ROUNDEDRECTD27*%
G04:AMPARAMS|DCode=28|XSize=2.032mm|YSize=2.032mm|CornerRadius=0.508mm|HoleSize=0mm|Usage=FLASHONLY|Rotation=0.000|XOffset=0mm|YOffset=0mm|HoleType=Round|Shape=RoundedRectangle|*
%AMROUNDEDRECTD28*
21,1,2.0320,1.0160,0,0,0.0*
21,1,1.0160,2.0320,0,0,0.0*
1,1,1.0160,0.5080,-0.5080*
1,1,1.0160,-0.5080,-0.5080*
1,1,1.0160,-0.5080,0.5080*
1,1,1.0160,0.5080,0.5080*
%
%ADD28ROUNDEDRECTD28*%
%ADD29P,2.1994X8X22.5*%
%ADD30C,3.0000*%
%ADD31C,1.2700*%
G36*
X628892Y391722D02*
Y385056D01*
X629633Y384408D01*
X639076D01*
Y375243D01*
X633429D01*
X629262Y375613D01*
X628892Y375243D01*
Y368299D01*
X629262Y367928D01*
Y367558D01*
X630281Y367928D01*
X654445Y367558D01*
X655463Y367280D01*
X655834Y367558D01*
Y374594D01*
X655186Y375243D01*
X643983D01*
Y384408D01*
X649538D01*
X655463Y384038D01*
X655834Y384408D01*
Y391352D01*
X655463Y391722D01*
Y392093D01*
X649168Y391722D01*
X629262Y392093D01*
X628892Y391722D01*
D02*
G37*
G36*
X644909Y363670D02*
X644261Y363577D01*
X643613Y363484D01*
X642779Y363299D01*
X641854Y363022D01*
X641020Y362651D01*
X640095Y362188D01*
X639169Y361633D01*
X638243Y360892D01*
X637410Y360059D01*
X636669Y359040D01*
X636021Y357837D01*
X635558Y356541D01*
X635188Y354967D01*
Y351078D01*
X635280Y350708D01*
X635465Y349782D01*
X635928Y348671D01*
X636669Y347375D01*
X637132Y346819D01*
X637687Y346171D01*
X638428Y345616D01*
X639261Y345060D01*
X640187Y344598D01*
X641206Y344135D01*
X644353Y343857D01*
X646020D01*
X646390Y343487D01*
X646761D01*
Y343579D01*
X646853Y343857D01*
X646946Y344320D01*
X647131Y345060D01*
X647224Y346079D01*
X647409Y347375D01*
X647501Y348949D01*
Y356726D01*
X647686Y356633D01*
X648057Y356448D01*
X648705Y356170D01*
X649353Y355615D01*
X650094Y354967D01*
X650742Y354134D01*
X651112Y353115D01*
X651297Y351819D01*
Y349782D01*
X649908Y344875D01*
X650279Y344505D01*
X654075D01*
X654167D01*
X654352Y344690D01*
X654630Y345060D01*
X655000Y345616D01*
X655371Y346449D01*
X655556Y347005D01*
X655741Y347745D01*
X655834Y348486D01*
X656019Y349412D01*
X656111Y350430D01*
X656204Y351541D01*
Y353023D01*
X656111Y353393D01*
X656019Y353948D01*
X655926Y354596D01*
X655648Y355430D01*
X655371Y356356D01*
X655093Y357374D01*
X654630Y358300D01*
X654075Y359318D01*
X653427Y360337D01*
X652686Y361262D01*
X651760Y362096D01*
X650742Y362744D01*
X649538Y363299D01*
X648242Y363670D01*
X646761Y363762D01*
X645742D01*
X645650D01*
X645372D01*
X644909Y363670D01*
D02*
G37*
G36*
X639817Y339135D02*
X639169Y338857D01*
X638335Y338394D01*
X637873Y338024D01*
X637410Y337654D01*
X636947Y337098D01*
X636576Y336450D01*
X636114Y335709D01*
X635743Y334784D01*
X635465Y333765D01*
X635188Y332654D01*
Y328210D01*
X635280Y327655D01*
X635373Y326914D01*
X635465Y326081D01*
X635651Y325248D01*
X635928Y324600D01*
X636206Y324044D01*
X636391Y323951D01*
X636576Y323859D01*
X639724D01*
X640835Y324600D01*
X640743Y324692D01*
X640650Y324970D01*
X640372Y325433D01*
X640095Y325988D01*
X639817Y326729D01*
X639539Y327655D01*
X639261Y328673D01*
X639076Y329784D01*
Y329877D01*
X639169Y330155D01*
X639354Y330617D01*
X639539Y330988D01*
X639817Y331451D01*
X640187Y331914D01*
X640650Y332191D01*
X641206Y332284D01*
Y332191D01*
X641391Y331914D01*
X641576Y331451D01*
X641854Y330895D01*
X642131Y330155D01*
X642502Y329414D01*
X643242Y327747D01*
X644168Y326081D01*
X644539Y325340D01*
X645002Y324600D01*
X645372Y324044D01*
X645742Y323581D01*
X646113Y323303D01*
X646390Y323211D01*
X649168Y322470D01*
X649260D01*
X649445D01*
X649816Y322563D01*
X650279Y322655D01*
X651390Y322933D01*
X652038Y323303D01*
X652686Y323674D01*
X653334Y324137D01*
X653982Y324785D01*
X654538Y325525D01*
X655093Y326451D01*
X655556Y327562D01*
X655926Y328766D01*
X656111Y330247D01*
X656204Y331914D01*
Y333488D01*
X656111Y334413D01*
X656019Y335432D01*
X655741Y336543D01*
X655463Y337654D01*
X655000Y338580D01*
X654723Y338950D01*
X654445Y339228D01*
X650649D01*
X649908Y338580D01*
X650001Y338394D01*
X650279Y338024D01*
X650556Y337376D01*
X650927Y336543D01*
X651390Y335709D01*
X651667Y334691D01*
X651945Y333673D01*
X652038Y332654D01*
Y332377D01*
X651945Y332006D01*
X651853Y331636D01*
X651575Y331173D01*
X651297Y330617D01*
X650834Y330155D01*
X650279Y329784D01*
X649908D01*
X649723Y329877D01*
X649538Y330247D01*
X649353Y330432D01*
X649168Y330803D01*
X648890Y331173D01*
X648612Y331729D01*
X648242Y332377D01*
X647872Y333210D01*
X647409Y334136D01*
X646946Y335154D01*
X646390Y336450D01*
X645742Y337839D01*
X645650Y337932D01*
X645372Y338024D01*
X645094Y338302D01*
X644631Y338487D01*
X643613Y339043D01*
X643057Y339135D01*
X642594Y339228D01*
X640465D01*
X640372D01*
X640280D01*
X639817Y339135D01*
D02*
G37*
G36*
X645094Y318211D02*
X644724Y318119D01*
X644261Y317934D01*
X643891Y317748D01*
X643520Y317378D01*
X643242Y316915D01*
Y314693D01*
X643335Y314601D01*
X643428Y314415D01*
X643613Y314138D01*
X643983Y313860D01*
X644446Y313582D01*
X645002Y313305D01*
X645742Y313027D01*
X645835D01*
X646113Y313119D01*
X646390Y313305D01*
X646853Y313490D01*
X647686Y314045D01*
X647964Y314415D01*
X648149Y314786D01*
Y316175D01*
X648057Y316637D01*
X647872Y317008D01*
X647594Y317471D01*
X647131Y317934D01*
X646575Y318211D01*
X645742Y318304D01*
X645650D01*
X645464D01*
X645094Y318211D01*
D02*
G37*
G36*
X639909Y308768D02*
X639354Y308583D01*
X638521Y308120D01*
X637595Y307379D01*
X637225Y306916D01*
X636762Y306361D01*
X636299Y305713D01*
X635928Y304972D01*
X635651Y304046D01*
X635373Y303120D01*
X635280Y302009D01*
X635188Y300806D01*
Y300343D01*
X635280Y299787D01*
Y299139D01*
X635465Y298213D01*
X635651Y297288D01*
X635928Y296084D01*
X636299Y294880D01*
X639446D01*
X640095Y295529D01*
X640002Y295621D01*
X639909Y295899D01*
X639632Y296362D01*
X639354Y296917D01*
X638891Y298306D01*
X638798Y299047D01*
X638706Y299787D01*
Y301917D01*
X638798Y302380D01*
X638984Y302843D01*
X639354Y303398D01*
X639724Y303861D01*
X640372Y304231D01*
X641206Y304324D01*
X641298D01*
X641483Y304139D01*
X641761Y303768D01*
X641946Y303491D01*
X642131Y303120D01*
X642409Y302657D01*
X642687Y302102D01*
X642965Y301454D01*
X643335Y300621D01*
X643705Y299695D01*
X644076Y298584D01*
X644539Y297288D01*
X645002Y295899D01*
X645094Y295806D01*
X645372Y295529D01*
X645742Y295251D01*
X646205Y294788D01*
X646761Y294417D01*
X647409Y294140D01*
X647964Y293862D01*
X648520Y293769D01*
X650649D01*
X650742D01*
X650834D01*
X651390Y293862D01*
X652223Y294232D01*
X652593Y294510D01*
X653149Y294880D01*
X653612Y295343D01*
X654075Y295899D01*
X654538Y296639D01*
X655000Y297473D01*
X655371Y298491D01*
X655741Y299695D01*
X656019Y300991D01*
X656204Y302565D01*
Y302843D01*
X656111Y303120D01*
Y303583D01*
X655926Y304509D01*
X655741Y305713D01*
X655463Y306824D01*
X655186Y307842D01*
X655000Y308305D01*
X654815Y308583D01*
X654630Y308768D01*
X654445Y308860D01*
X653704D01*
X653612D01*
X653334D01*
X652871Y308768D01*
X652408Y308675D01*
X651945Y308583D01*
X651482Y308398D01*
X651112Y308120D01*
X650927Y307750D01*
X651019Y307657D01*
X651205Y307379D01*
X651482Y306916D01*
X651760Y306268D01*
X652130Y305527D01*
X652408Y304509D01*
X652593Y303398D01*
X652686Y302194D01*
Y301639D01*
X652593Y301269D01*
X652408Y300713D01*
X652130Y300065D01*
X651760Y299417D01*
X651297Y298862D01*
X650649Y298491D01*
X649908Y298306D01*
X649816D01*
X649631Y298399D01*
X649260Y298769D01*
X648982Y299047D01*
X648797Y299324D01*
X648427Y299787D01*
X648149Y300343D01*
X647779Y301084D01*
X647409Y301824D01*
X647038Y302843D01*
X646668Y303954D01*
X646205Y305250D01*
X645742Y306731D01*
X645650Y306824D01*
X645372Y307101D01*
X645002Y307379D01*
X644446Y307750D01*
X643891Y308212D01*
X643335Y308490D01*
X642779Y308768D01*
X642224Y308860D01*
X640095D01*
X640002D01*
X639909Y308768D01*
D02*
G37*
G36*
X644724Y290529D02*
X644076Y290436D01*
X643335Y290251D01*
X642409Y290066D01*
X641483Y289696D01*
X640465Y289233D01*
X639446Y288677D01*
X638521Y287937D01*
X637595Y287104D01*
X636854Y286085D01*
X636114Y284789D01*
X635651Y283400D01*
X635280Y281734D01*
X635188Y279789D01*
Y279697D01*
X635280Y279419D01*
X635373Y278956D01*
X635465Y278401D01*
X635651Y277660D01*
X635928Y276919D01*
X636669Y275253D01*
X637225Y274420D01*
X637780Y273586D01*
X638428Y272846D01*
X639261Y272105D01*
X640187Y271549D01*
X641206Y271087D01*
X642317Y270809D01*
X643613Y270716D01*
X646761D01*
X646853D01*
X647131D01*
X647594Y270809D01*
X648149Y270994D01*
X648890Y271087D01*
X649631Y271364D01*
X650464Y271642D01*
X651297Y272105D01*
X652130Y272568D01*
X652964Y273123D01*
X653704Y273864D01*
X654445Y274697D01*
X655000Y275623D01*
X655463Y276734D01*
X655741Y278030D01*
X655834Y279419D01*
Y281919D01*
X655741Y282382D01*
X655648Y282937D01*
X655556Y283678D01*
X655278Y284419D01*
X655000Y285252D01*
X654538Y286085D01*
X654075Y286918D01*
X653334Y287752D01*
X652593Y288492D01*
X651575Y289233D01*
X650464Y289788D01*
X649075Y290251D01*
X647501Y290529D01*
X645742Y290622D01*
X645650D01*
X645279D01*
X644724Y290529D01*
D02*
G37*
G36*
X655093Y269605D02*
X654815Y269513D01*
X654260Y269328D01*
X653519Y269050D01*
X652593Y268679D01*
X651297Y268124D01*
X649723Y267476D01*
X648890Y267106D01*
X647872Y266643D01*
X646761Y266180D01*
X645557Y265624D01*
X644353Y264976D01*
X642965Y264421D01*
X641391Y263680D01*
X639817Y262939D01*
X638058Y262106D01*
X636206Y261273D01*
X634262Y260347D01*
X632132Y259329D01*
X629910Y258218D01*
X627503Y257107D01*
X627411Y257014D01*
X627133Y256921D01*
X626670Y256644D01*
X626207Y256366D01*
X625189Y255440D01*
X624726Y254885D01*
X624356Y254329D01*
Y251181D01*
X624448Y251089D01*
X624541Y250811D01*
X624818Y250348D01*
X625281Y249885D01*
X625744Y249515D01*
X626300Y249052D01*
X627040Y248774D01*
X627874Y248682D01*
X628614D01*
X628800D01*
X629077Y248774D01*
X629448Y248867D01*
X630096Y249144D01*
X630929Y249422D01*
X632040Y249885D01*
X633429Y250441D01*
X635188Y251274D01*
X636206Y251644D01*
X637317Y252200D01*
X638521Y252755D01*
X639817Y253311D01*
X641206Y254051D01*
X642687Y254699D01*
X644353Y255533D01*
X646113Y256366D01*
X647964Y257292D01*
X650001Y258310D01*
X652130Y259329D01*
X654352Y260532D01*
X656759Y261736D01*
X659352Y263032D01*
X660000Y265161D01*
Y266550D01*
X659907Y266920D01*
X659722Y267476D01*
X659444Y268031D01*
X658981Y268587D01*
X658426Y269142D01*
X657593Y269698D01*
X655463D01*
X655371D01*
X655093Y269605D01*
D02*
G37*
G36*
Y258773D02*
X654723Y258680D01*
X654167Y258403D01*
X653427Y258125D01*
X652408Y257662D01*
X651112Y257107D01*
X649445Y256366D01*
X648427Y255903D01*
X647409Y255440D01*
X646205Y254885D01*
X645002Y254329D01*
X643613Y253681D01*
X642131Y252940D01*
X640465Y252200D01*
X638706Y251366D01*
X636854Y250441D01*
X634910Y249515D01*
X632780Y248496D01*
X630466Y247385D01*
X628059Y246182D01*
X625466Y244886D01*
X625374Y244793D01*
X625281Y244701D01*
X624911Y244052D01*
X624541Y243312D01*
X624356Y242849D01*
Y240812D01*
X624448Y240442D01*
X624633Y239979D01*
X624911Y239331D01*
X625466Y238683D01*
X626300Y238127D01*
X626763Y237942D01*
X627411Y237664D01*
X628059Y237572D01*
X628892Y237479D01*
X628985D01*
X629170Y237572D01*
X629540Y237757D01*
X630003Y237942D01*
X630651Y238220D01*
X631392Y238590D01*
X632225Y238960D01*
X633151Y239331D01*
X635188Y240257D01*
X637502Y241367D01*
X640095Y242479D01*
X642779Y243682D01*
X645464Y244978D01*
X648149Y246274D01*
X650742Y247478D01*
X653149Y248682D01*
X655371Y249885D01*
X656297Y250441D01*
X657222Y250903D01*
X657963Y251366D01*
X658704Y251829D01*
X659259Y252200D01*
X659722Y252570D01*
X660000Y254329D01*
Y255440D01*
X659907Y255810D01*
X659815Y256273D01*
X659537Y256829D01*
X659074Y257384D01*
X658426Y258032D01*
X657500Y258495D01*
X656204Y258866D01*
X655463D01*
X655371D01*
X655093Y258773D01*
D02*
G37*
G36*
X627874Y231554D02*
Y230443D01*
X627966Y230350D01*
X628244Y230072D01*
X628800Y229702D01*
X629170Y229517D01*
X629633Y229239D01*
X630281Y229054D01*
X630929Y228776D01*
X631762Y228406D01*
X632780Y228128D01*
X633891Y227758D01*
X635188Y227387D01*
X635095Y227295D01*
X634817Y227110D01*
X634262Y226739D01*
X633799Y226554D01*
X633336Y226369D01*
X632780Y226091D01*
X632040Y225814D01*
X631207Y225536D01*
X630281Y225073D01*
X629170Y224702D01*
X627874Y224240D01*
Y222481D01*
X628614Y221740D01*
X628892D01*
X628985D01*
X629448Y221925D01*
X630003Y222110D01*
X630744Y222295D01*
X631670Y222573D01*
X632688Y222943D01*
X634817Y223684D01*
X637039Y224517D01*
X638058Y224888D01*
X638984Y225258D01*
X639724Y225721D01*
X640280Y225999D01*
X640743Y226369D01*
X640835Y226647D01*
Y227758D01*
X640650Y227943D01*
X640465Y228036D01*
X640187Y228221D01*
X639817Y228498D01*
X639261Y228684D01*
X638613Y229054D01*
X637873Y229424D01*
X636854Y229795D01*
X635651Y230257D01*
X634262Y230720D01*
X632688Y231276D01*
X630744Y231924D01*
X628614Y232572D01*
X627874Y231554D01*
D02*
G37*
G36*
X643613Y232942D02*
Y231831D01*
X643705Y231739D01*
X643983Y231461D01*
X644539Y231183D01*
X645002Y230998D01*
X645464Y230813D01*
X646113Y230535D01*
X646853Y230350D01*
X647686Y230165D01*
X648797Y229887D01*
X649908Y229702D01*
X651297Y229424D01*
Y229146D01*
X651205D01*
X650927Y229054D01*
X650556Y228961D01*
X650094Y228869D01*
X648890Y228591D01*
X647409Y228221D01*
X646020Y227758D01*
X644816Y227295D01*
X644353Y227017D01*
X643983Y226739D01*
X643705Y226554D01*
X643613Y226276D01*
Y225165D01*
X643705Y225073D01*
X643983Y224795D01*
X644539Y224425D01*
X645002Y224240D01*
X645464Y224054D01*
X646113Y223777D01*
X646853Y223591D01*
X647686Y223314D01*
X648797Y223036D01*
X649908Y222758D01*
X651297Y222481D01*
Y222110D01*
X651205D01*
X650927Y222018D01*
X650556D01*
X650094Y221925D01*
X648890Y221647D01*
X647409Y221369D01*
X646020Y220999D01*
X644816Y220629D01*
X644353Y220351D01*
X643983Y220166D01*
X643705Y219888D01*
X643613Y219703D01*
Y218592D01*
X644353Y217944D01*
X644631D01*
X644724D01*
X645187Y218036D01*
X645742Y218129D01*
X646483Y218222D01*
X647409Y218407D01*
X648427Y218592D01*
X650556Y219055D01*
X652778Y219518D01*
X653797Y219796D01*
X654723Y220073D01*
X655463Y220351D01*
X656019Y220536D01*
X656482Y220814D01*
X656574Y221092D01*
Y222943D01*
X656482Y223036D01*
X656204Y223314D01*
X655648Y223591D01*
X655278Y223777D01*
X654723Y224054D01*
X654167Y224240D01*
X653427Y224517D01*
X652593Y224795D01*
X651575Y225073D01*
X650464Y225351D01*
X649168Y225628D01*
Y225999D01*
X649260D01*
X649445Y226091D01*
X649816Y226184D01*
X650279Y226276D01*
X651482Y226554D01*
X652871Y226924D01*
X654260Y227387D01*
X655371Y227850D01*
X655926Y228036D01*
X656297Y228313D01*
X656482Y228498D01*
X656574Y228776D01*
Y230628D01*
X656389Y230720D01*
X656204Y230906D01*
X655926Y230998D01*
X655556Y231183D01*
X655093Y231369D01*
X654445Y231554D01*
X653612Y231831D01*
X652686Y232109D01*
X651575Y232387D01*
X650186Y232665D01*
X648612Y232942D01*
X646761Y233313D01*
X644631Y233683D01*
X644353D01*
X643613Y232942D01*
D02*
G37*
G36*
X639632Y223314D02*
X639076Y223221D01*
X638428Y222943D01*
X637595Y222666D01*
X636669Y222388D01*
X634632Y221647D01*
X632503Y220814D01*
X631484Y220351D01*
X630559Y219888D01*
X629818Y219425D01*
X629077Y219055D01*
X628614Y218592D01*
X628244Y218222D01*
Y217851D01*
X628336Y217481D01*
X628614Y217018D01*
X629170Y216463D01*
X629540Y216092D01*
X630003Y215722D01*
X630651Y215444D01*
X631299Y215074D01*
X632132Y214704D01*
X633151Y214333D01*
X634262Y213963D01*
X635558Y213685D01*
X640465Y211926D01*
X641483Y213407D01*
Y213685D01*
X641391Y213778D01*
X641298Y213963D01*
X640743Y214518D01*
X639909Y215166D01*
X639354Y215352D01*
X638706Y215444D01*
Y219981D01*
X638798D01*
X639169Y220073D01*
X639539Y220259D01*
X640095Y220444D01*
X640557Y220721D01*
X641020Y221092D01*
X641391Y221555D01*
X641483Y222110D01*
Y222203D01*
X641391Y222295D01*
X641206Y222758D01*
X640743Y223314D01*
X640465Y223406D01*
X640095Y223499D01*
X640002D01*
X639632Y223314D01*
D02*
G37*
G36*
X654723Y218407D02*
X654075Y218222D01*
X653334Y218036D01*
X652501Y217666D01*
X651482Y217388D01*
X649353Y216555D01*
X647316Y215722D01*
X646298Y215352D01*
X645372Y214981D01*
X644724Y214611D01*
X644076Y214241D01*
X643705Y213963D01*
X643613Y213685D01*
Y211833D01*
X643798Y211741D01*
X643983Y211556D01*
X644168Y211371D01*
X644539Y211185D01*
X645002Y210908D01*
X645650Y210630D01*
X646390Y210352D01*
X647224Y209982D01*
X648335Y209519D01*
X649631Y209056D01*
X651112Y208593D01*
X652871Y208038D01*
X654815Y207390D01*
X655834D01*
X656574Y208130D01*
Y209334D01*
X656482Y209426D01*
X656297Y209704D01*
X655926Y209889D01*
X655556Y210167D01*
X654908Y210352D01*
X654075Y210537D01*
Y214889D01*
X654167Y214981D01*
X654352Y215166D01*
X654723Y215352D01*
X655093Y215629D01*
X655741Y215907D01*
X656574Y216185D01*
Y217666D01*
X656389Y218036D01*
X656204Y218222D01*
X656019Y218314D01*
X655648Y218500D01*
X655186Y218592D01*
X655093D01*
X654723Y218407D01*
D02*
G37*
G36*
X629077Y211185D02*
X628707Y210908D01*
X628522Y210630D01*
X628429Y210260D01*
X628244Y209704D01*
Y209149D01*
X629633Y208130D01*
X638335D01*
Y205908D01*
X638428Y205723D01*
Y205353D01*
X638613Y204982D01*
X638706Y204612D01*
X638891Y204242D01*
X639169Y204056D01*
X639446Y203964D01*
X640465D01*
X641206Y204612D01*
Y210537D01*
X640465Y211278D01*
X629262D01*
X629170D01*
X629077Y211185D01*
D02*
G37*
G36*
X643613Y205353D02*
Y204242D01*
X644353Y203594D01*
X653704D01*
Y200075D01*
X654815Y199057D01*
X655463D01*
X656574Y200075D01*
Y205353D01*
X655463Y206371D01*
X644631D01*
X643613Y205353D01*
D02*
G37*
G36*
X639909Y203408D02*
X639354Y203223D01*
X638521Y203038D01*
X637595Y202760D01*
X636576Y202390D01*
X634354Y201649D01*
X632132Y200909D01*
X631114Y200446D01*
X630188Y200075D01*
X629355Y199705D01*
X628800Y199335D01*
X628336Y198964D01*
X628244Y198687D01*
Y197205D01*
X628429Y197020D01*
X628614Y196835D01*
X628892Y196557D01*
X629262Y196372D01*
X629725Y196094D01*
X630373Y195724D01*
X631207Y195354D01*
X632225Y194983D01*
X633429Y194520D01*
X634817Y194058D01*
X636391Y193502D01*
X638335Y192947D01*
X640465Y192391D01*
X641483Y193410D01*
Y194150D01*
X641391Y194335D01*
X641298Y194520D01*
X641113Y194706D01*
X640835Y194891D01*
X640280Y195168D01*
X639632Y195354D01*
X638706Y195539D01*
Y199705D01*
X639076Y200075D01*
X639169D01*
X639446Y200261D01*
X639817Y200446D01*
X640280Y200723D01*
X640743Y201001D01*
X641113Y201279D01*
X641391Y201557D01*
X641483Y201835D01*
Y202483D01*
X640465Y203594D01*
X640280D01*
X639909Y203408D01*
D02*
G37*
G36*
X643613Y197668D02*
Y196557D01*
X644631Y195539D01*
X653704D01*
Y192021D01*
X654445Y191373D01*
X655834D01*
X656574Y192021D01*
Y197668D01*
X656482Y197854D01*
X656204Y198131D01*
X655926Y198316D01*
X655556Y198501D01*
X655000Y198594D01*
X654445Y198687D01*
X644631D01*
X643613Y197668D01*
D02*
G37*
G36*
X628244Y190262D02*
Y189614D01*
X629262Y188503D01*
X640465D01*
X641483Y189614D01*
Y190262D01*
X640465Y191373D01*
X629262D01*
X628244Y190262D01*
D02*
G37*
G36*
X643613Y189891D02*
Y188503D01*
X644353Y187854D01*
X655834D01*
X656574Y188503D01*
Y189891D01*
X655834Y190632D01*
X644353D01*
X643613Y189891D01*
D02*
G37*
G36*
X631484Y187021D02*
X630836Y186836D01*
X630096Y186558D01*
X629448Y186003D01*
X628800Y185170D01*
X628614Y184707D01*
X628429Y184059D01*
X628244Y183410D01*
Y182392D01*
X628336Y182022D01*
X628429Y181466D01*
X628522Y180818D01*
X628707Y180170D01*
X628985Y179615D01*
X629262Y179244D01*
X629633Y179059D01*
X631021D01*
X631762Y179800D01*
X631021Y182577D01*
Y182670D01*
X631114Y182762D01*
X631392Y183225D01*
X631670Y183781D01*
X631855Y183873D01*
X632040Y183966D01*
X634540Y179059D01*
X634632Y178967D01*
X634725Y178874D01*
X635280Y178504D01*
X636021Y178226D01*
X636484Y178041D01*
X636947D01*
X637687D01*
X637873D01*
X638243Y178133D01*
X638891Y178318D01*
X639539Y178596D01*
X640280Y179152D01*
X640928Y179985D01*
X641113Y180448D01*
X641298Y181096D01*
X641483Y181744D01*
Y184059D01*
X641391Y184522D01*
X641298Y185077D01*
X641020Y185632D01*
X640743Y186281D01*
X640280Y186744D01*
X639724Y187114D01*
X638706D01*
X638058Y186466D01*
Y186095D01*
X638706Y182577D01*
Y182485D01*
X638613Y182392D01*
X638335Y181837D01*
X637780Y181374D01*
X637410Y181281D01*
X636947Y181189D01*
Y181281D01*
X636854Y181374D01*
X636762Y181651D01*
X636669Y182022D01*
X636299Y182948D01*
X635836Y183966D01*
X635280Y184984D01*
X634725Y185910D01*
X634077Y186651D01*
X633799Y186929D01*
X633429Y187114D01*
X632040D01*
X631855D01*
X631484Y187021D01*
D02*
G37*
G36*
X653056Y186095D02*
X653704Y181929D01*
X653056Y181189D01*
X652316D01*
X652223Y181281D01*
X652038Y181466D01*
X651853Y181837D01*
X651575Y182392D01*
X651205Y183225D01*
X651019Y183781D01*
X650834Y184429D01*
X650556Y185262D01*
X650279Y186095D01*
X648149Y186744D01*
X647131D01*
X646946D01*
X646575Y186558D01*
X646020Y186373D01*
X645372Y186095D01*
X644724Y185632D01*
X644168Y184984D01*
X643798Y184244D01*
X643613Y183318D01*
Y180911D01*
X643705Y180540D01*
X643798Y180170D01*
X643983Y179800D01*
X644168Y179429D01*
X644539Y179059D01*
X645002Y178781D01*
X646020D01*
X646113D01*
X646390Y178874D01*
X646668Y179244D01*
X646761Y179429D01*
Y179800D01*
X646390Y183318D01*
X646761Y183596D01*
X647779D01*
Y183503D01*
X647872Y183318D01*
X647964Y183040D01*
X648057Y182670D01*
X648427Y181744D01*
X648890Y180633D01*
X649538Y179522D01*
X650279Y178596D01*
X650742Y178226D01*
X651205Y177948D01*
X651760Y177763D01*
X652316Y177670D01*
X652501D01*
X652964Y177763D01*
X653612Y177948D01*
X654352Y178318D01*
X655186Y178874D01*
X655926Y179707D01*
X656204Y180263D01*
X656482Y180911D01*
X656667Y181744D01*
X656852Y182577D01*
Y182762D01*
X656759Y183318D01*
X656574Y183966D01*
X656389Y184799D01*
X656111Y185632D01*
X655741Y186373D01*
X655278Y186929D01*
X655093Y187021D01*
X654815Y187114D01*
X654445D01*
X653056Y186095D01*
D02*
G37*
%LPC*%
G36*
X643242Y356726D02*
Y356356D01*
X642872Y352560D01*
Y350430D01*
X642594D01*
X642502D01*
X642131Y350523D01*
X641576Y350708D01*
X641020Y350986D01*
X640465Y351356D01*
X639909Y351912D01*
X639539Y352652D01*
X639446Y353578D01*
Y353671D01*
X639539Y353948D01*
X639632Y354319D01*
X639909Y354874D01*
X640372Y355337D01*
X641020Y355893D01*
X641946Y356356D01*
X643242Y356726D01*
D02*
G37*
G36*
X643983Y285715D02*
X647131D01*
X647224D01*
X647409D01*
X647686Y285622D01*
X647964Y285530D01*
X648890Y285252D01*
X649908Y284881D01*
X650927Y284233D01*
X651853Y283493D01*
X652130Y283030D01*
X652408Y282474D01*
X652593Y281826D01*
X652686Y281178D01*
Y279604D01*
X652593Y279049D01*
X652316Y278308D01*
X651853Y277475D01*
X651482Y277104D01*
X651019Y276642D01*
X650556Y276271D01*
X649908Y275993D01*
X649075Y275623D01*
X648242Y275438D01*
X647224Y275345D01*
X646020Y275253D01*
X645742D01*
X645650D01*
X645464D01*
X645094D01*
X644539Y275345D01*
X643428Y275531D01*
X642039Y275901D01*
X640650Y276549D01*
X640095Y276919D01*
X639446Y277475D01*
X638984Y278123D01*
X638613Y278771D01*
X638428Y279604D01*
X638335Y280530D01*
Y280715D01*
X638428Y281178D01*
X638613Y281919D01*
X639076Y282845D01*
X639724Y283678D01*
X640187Y284141D01*
X640743Y284511D01*
X641391Y284881D01*
X642131Y285252D01*
X642965Y285530D01*
X643983Y285715D01*
D02*
G37*
G36*
X635928Y218962D02*
Y216555D01*
X631762Y217574D01*
Y217944D01*
X635928Y218962D01*
D02*
G37*
G36*
X651297Y214056D02*
Y211648D01*
X647131Y212667D01*
Y213037D01*
X651297Y214056D01*
D02*
G37*
G36*
X635928Y199335D02*
Y196557D01*
X632410Y197668D01*
Y198316D01*
X635928Y199335D01*
D02*
G37*
%LPD*%
D10*
X349000Y920300D02*
D03*
X361700Y945700D02*
D03*
X349000D02*
D03*
Y933000D02*
D03*
X361700Y920300D02*
D03*
Y933000D02*
D03*
D11*
X110000Y330000D02*
D03*
X57380Y247000D02*
D03*
D12*
X345000Y882000D02*
D03*
X365000D02*
D03*
D13*
X90000Y200000D02*
D03*
Y180000D02*
D03*
D14*
X65000Y153500D02*
D03*
X55500Y130500D02*
D03*
X74500D02*
D03*
D15*
X364120Y876880D02*
Y916403D01*
X345000Y882000D02*
X344000Y881000D01*
X346580Y883580D02*
X345000Y882000D01*
X346580Y883580D02*
Y916403D01*
X361700Y918822D02*
Y920300D01*
X364120Y916403D02*
X361700Y918822D01*
X349000D02*
Y920300D01*
Y918822D02*
X346580Y916403D01*
D16*
X196325Y709000D02*
Y848065D01*
X271840Y923580D02*
X196325Y848065D01*
X413000Y906000D02*
X395420Y923580D01*
X413000Y893000D02*
Y906000D01*
X339580Y923580D02*
X271840D01*
X349000Y933000D02*
X339580Y923580D01*
X395420D02*
X371120D01*
X361700Y933000D01*
D17*
X57000Y246620D02*
Y460000D01*
X300785Y683785D02*
X257000Y640000D01*
X440000Y683785D02*
X300785D01*
X196325Y640000D02*
X196000Y640325D01*
Y709000D01*
X196325Y640000D02*
X36000D01*
X19000Y498000D02*
Y623000D01*
X57000Y460000D02*
X19000Y498000D01*
X257000Y640000D02*
X196325D01*
X36000D02*
X19000Y623000D01*
X297500Y595000D02*
X237000D01*
X57000Y246620D02*
X56000Y245620D01*
X57380Y247000D02*
X57000Y246620D01*
X56000Y131000D02*
Y245620D01*
Y131000D02*
X55500Y130500D01*
X90000Y136429D02*
Y180000D01*
Y136429D02*
X84071Y130500D01*
X74500D01*
X134000Y80000D02*
X75000D01*
X65000Y90000D01*
Y153500D01*
X65001Y153501D02*
X65000Y153500D01*
X196325Y709000D02*
X196192D01*
X293000Y561000D02*
X58000D01*
X110000Y200000D02*
Y330000D01*
X451673Y595000D02*
X297500D01*
X365000Y790673D02*
Y882000D01*
X451673Y433673D02*
Y595000D01*
Y433673D02*
X348000Y330000D01*
X479785Y683785D02*
X440000D01*
X458999Y620000D02*
X444999D01*
X460000D02*
X458999D01*
X639000D02*
X460000D01*
X348000Y330000D02*
X110000D01*
Y200000D02*
X90000D01*
X134000D02*
X110000D01*
X65001Y153501D02*
X65000Y153502D01*
X134000Y80000D02*
Y100000D01*
X74500Y130500D02*
Y132000D01*
X616000Y820000D02*
X479785Y683785D01*
X638000Y820000D02*
X616000D01*
X570500Y660000D02*
X427000D01*
X630500Y720000D02*
X570500Y660000D01*
X637000Y720000D02*
X630500D01*
X444999Y620000D02*
X412001Y652999D01*
X451673Y704000D02*
X365000Y790673D01*
X424000Y940000D02*
X395560Y968440D01*
X425000Y940000D02*
X424000D01*
X395560Y968440D02*
X361351D01*
X355470Y962559D01*
Y952960D02*
Y962559D01*
X349000Y945700D02*
X347797D01*
X355470Y952960D02*
X349000Y946490D01*
Y945700D02*
Y946490D01*
X222450Y81000D02*
X146450D01*
D18*
X490000Y80000D02*
Y200000D01*
X566000Y80000D02*
Y200000D01*
X490000D01*
D19*
X344000Y881000D02*
X325000D01*
X325500Y881500D02*
X325000Y881000D01*
D20*
X109348Y349000D02*
Y357464D01*
X113580Y353232D02*
X105116D01*
X113580Y361696D02*
X115696Y363812D01*
Y368044D01*
X113580Y370160D01*
X111464D01*
X109348Y368044D01*
Y365928D01*
Y368044D01*
X107232Y370160D01*
X105116D01*
X103000Y368044D01*
Y363812D01*
X105116Y361696D01*
X115696Y374392D02*
X107232D01*
X103000Y378624D01*
X107232Y382856D01*
X115696D01*
X84580Y240464D02*
X86696Y238348D01*
Y234116D01*
X84580Y232000D01*
X76116D01*
X74000Y234116D01*
Y238348D01*
X76116Y240464D01*
X80348D01*
Y236232D01*
X74000Y244696D02*
X86696D01*
X74000Y253160D01*
X86696D01*
Y257392D02*
X74000D01*
Y263740D01*
X76116Y265856D01*
X84580D01*
X86696Y263740D01*
Y257392D01*
X656000Y659774D02*
X644150D01*
X650075D01*
Y642000D01*
X638226Y659774D02*
X626376Y642000D01*
Y659774D02*
X638226Y642000D01*
X652000Y741000D02*
Y758774D01*
X643113D01*
X640150Y755812D01*
Y749887D01*
X643113Y746925D01*
X652000D01*
X646075D02*
X640150Y741000D01*
X634226Y758774D02*
X622376Y741000D01*
Y758774D02*
X634226Y741000D01*
X126000Y574000D02*
Y588995D01*
X118502D01*
X116003Y586496D01*
Y581498D01*
X118502Y578998D01*
X126000D01*
X111005Y588995D02*
Y574000D01*
X106006Y578998D01*
X101008Y574000D01*
Y588995D01*
X96010Y574000D02*
Y588995D01*
X91011Y583997D01*
X86013Y588995D01*
Y574000D01*
X648150Y855812D02*
X651113Y858774D01*
X657038D01*
X660000Y855812D01*
Y843962D01*
X657038Y841000D01*
X651113D01*
X648150Y843962D01*
Y849887D01*
X654075D01*
X642226Y841000D02*
Y858774D01*
X630376Y841000D01*
Y858774D01*
X624451D02*
Y841000D01*
X615564D01*
X612602Y843962D01*
Y855812D01*
X615564Y858774D01*
X624451D01*
X116003Y462496D02*
X118502Y464995D01*
X123501D01*
X126000Y462496D01*
Y452499D01*
X123501Y450000D01*
X118502D01*
X116003Y452499D01*
Y457498D01*
X121002D01*
X111005Y450000D02*
Y464995D01*
X101008Y450000D01*
Y464995D01*
X96010D02*
Y450000D01*
X88512D01*
X86013Y452499D01*
Y462496D01*
X88512Y464995D01*
X96010D01*
X612000Y567000D02*
X589147D01*
Y555574D01*
X592956Y551765D01*
X600574D01*
X604382Y555574D01*
Y567000D01*
X612000Y540339D02*
Y532721D01*
X608191Y528912D01*
X600574D01*
X596765Y532721D01*
Y540339D01*
X600574Y544147D01*
X608191D01*
X612000Y540339D01*
Y521295D02*
X596765D01*
Y509868D01*
X600574Y506060D01*
X612000D01*
X619618Y490825D02*
Y487016D01*
X615809Y483207D01*
X596765D01*
Y494633D01*
X600574Y498442D01*
X608191D01*
X612000Y494633D01*
Y483207D01*
X646226Y566000D02*
X658075D01*
X664000Y560075D01*
X658075Y554151D01*
X646226D01*
X664000Y548226D02*
Y542301D01*
Y545263D01*
X646226D01*
X649188Y548226D01*
X664000Y533414D02*
X661038D01*
Y530452D01*
X664000D01*
Y533414D01*
X649188Y518602D02*
X646226Y515640D01*
Y509715D01*
X649188Y506753D01*
X661038D01*
X664000Y509715D01*
Y515640D01*
X661038Y518602D01*
X649188D01*
X638000Y554151D02*
Y566000D01*
X626150Y554151D01*
X623188D01*
X620226Y557113D01*
Y563038D01*
X623188Y566000D01*
X638000Y539339D02*
X620226D01*
X629113Y548226D01*
Y536376D01*
X638000Y530452D02*
X635038D01*
Y527489D01*
X638000D01*
Y530452D01*
X623188Y515640D02*
X620226Y512677D01*
Y506753D01*
X623188Y503790D01*
X635038D01*
X638000Y506753D01*
Y512677D01*
X635038Y515640D01*
X623188D01*
Y497865D02*
X620226Y494903D01*
Y488978D01*
X623188Y486016D01*
X626150D01*
X629113Y488978D01*
X632075Y486016D01*
X635038D01*
X638000Y488978D01*
Y494903D01*
X635038Y497865D01*
X632075D01*
X629113Y494903D01*
X626150Y497865D01*
X623188D01*
X629113Y494903D02*
Y488978D01*
X638000Y480091D02*
X635038D01*
Y477129D01*
X638000D01*
Y480091D01*
Y453430D02*
Y465279D01*
X626150Y453430D01*
X623188D01*
X620226Y456392D01*
Y462317D01*
X623188Y465279D01*
Y447505D02*
X620226Y444543D01*
Y438618D01*
X623188Y435655D01*
X635038D01*
X638000Y438618D01*
Y444543D01*
X635038Y447505D01*
X623188D01*
X638000Y417881D02*
Y429731D01*
X626150Y417881D01*
X623188D01*
X620226Y420844D01*
Y426768D01*
X623188Y429731D01*
X638000Y411956D02*
Y406032D01*
Y408994D01*
X620226D01*
X623188Y411956D01*
X692000Y567000D02*
X674226D01*
X680150Y561075D01*
X674226Y555150D01*
X692000D01*
X674226Y537376D02*
Y549226D01*
X692000D01*
Y537376D01*
X683113Y549226D02*
Y543301D01*
X674226Y531451D02*
Y519602D01*
Y525527D01*
X692000D01*
X677188Y501828D02*
X674226Y504790D01*
Y510715D01*
X677188Y513677D01*
X680150D01*
X683113Y510715D01*
Y504790D01*
X686075Y501828D01*
X689038D01*
X692000Y504790D01*
Y510715D01*
X689038Y513677D01*
X692000Y495903D02*
X680150Y484053D01*
X674226Y478129D02*
Y466279D01*
X677188D01*
X689038Y478129D01*
X692000D01*
Y466279D01*
X674226Y460354D02*
X689038D01*
X692000Y457392D01*
Y451467D01*
X689038Y448505D01*
X674226D01*
Y430731D02*
Y442580D01*
X683113D01*
Y436655D01*
Y442580D01*
X692000D01*
X674226Y424806D02*
X692000D01*
Y412956D01*
D21*
X155000Y260000D02*
Y279000D01*
X535000Y260000D02*
Y279000D01*
X155000Y279000D01*
X535000Y260000D02*
X155000Y260000D01*
X700000Y1000000D02*
X700000Y0D01*
X700000Y1000000D02*
X-0D01*
Y0D02*
Y1000000D01*
X700000Y0D02*
X-0D01*
D22*
X345190Y958400D02*
D03*
X365510D02*
D03*
X355350Y907600D02*
D03*
D23*
X380750D02*
D03*
X329950D02*
D03*
X380750Y939350D02*
D03*
X329950D02*
D03*
D24*
X638000Y820000D02*
D03*
X637000Y720000D02*
D03*
X639000Y620000D02*
D03*
X57000Y460000D02*
D03*
X58000Y561000D02*
D03*
D25*
X50001Y949999D02*
D03*
X650001D02*
D03*
X50001Y49999D02*
D03*
X650001D02*
D03*
D26*
X143900Y860000D02*
D03*
X556100Y272400D02*
D03*
Y860000D02*
D03*
D27*
X154000Y80000D02*
D03*
X546000D02*
D03*
X190000D02*
D03*
X510000D02*
D03*
X546000Y200000D02*
D03*
X154000D02*
D03*
X510000D02*
D03*
X190000D02*
D03*
D28*
X483000Y894800D02*
D03*
X513000D02*
D03*
D29*
X543000D02*
D03*
D30*
X513000Y938000D02*
D03*
D31*
X237000Y595000D02*
D03*
X293000Y561000D02*
D03*
X257000Y640000D02*
D03*
X297500Y595000D02*
D03*
X451673D02*
D03*
X413000Y893000D02*
D03*
X325000Y881000D02*
D03*
X425000Y940000D02*
D03*
X427000Y660000D02*
D03*
X412001Y652999D02*
D03*
X451673Y704000D02*
D03*
X440000Y683785D02*
D03*
X196000Y709000D02*
D03*
M02*
