G04*
G04 #@! TF.GenerationSoftware,Altium Limited,Altium Designer,19.0.10 (269)*
G04*
G04 Layer_Physical_Order=2*
G04 Layer_Color=16711680*
%FSLAX44Y44*%
%MOMM*%
G71*
G01*
G75*
G04:AMPARAMS|DCode=10|XSize=0.6mm|YSize=0.9mm|CornerRadius=0.15mm|HoleSize=0mm|Usage=FLASHONLY|Rotation=180.000|XOffset=0mm|YOffset=0mm|HoleType=Round|Shape=RoundedRectangle|*
%AMROUNDEDRECTD10*
21,1,0.6000,0.6000,0,0,180.0*
21,1,0.3000,0.9000,0,0,180.0*
1,1,0.3000,-0.1500,0.3000*
1,1,0.3000,0.1500,0.3000*
1,1,0.3000,0.1500,-0.3000*
1,1,0.3000,-0.1500,-0.3000*
%
%ADD10ROUNDEDRECTD10*%
%ADD11R,0.3000X1.2000*%
%ADD12R,2.4000X2.4000*%
G04:AMPARAMS|DCode=13|XSize=1.1mm|YSize=1.35mm|CornerRadius=0.1375mm|HoleSize=0mm|Usage=FLASHONLY|Rotation=270.000|XOffset=0mm|YOffset=0mm|HoleType=Round|Shape=RoundedRectangle|*
%AMROUNDEDRECTD13*
21,1,1.1000,1.0750,0,0,270.0*
21,1,0.8250,1.3500,0,0,270.0*
1,1,0.2750,-0.5375,-0.4125*
1,1,0.2750,-0.5375,0.4125*
1,1,0.2750,0.5375,0.4125*
1,1,0.2750,0.5375,-0.4125*
%
%ADD13ROUNDEDRECTD13*%
G04:AMPARAMS|DCode=14|XSize=1.1mm|YSize=1.35mm|CornerRadius=0.1375mm|HoleSize=0mm|Usage=FLASHONLY|Rotation=180.000|XOffset=0mm|YOffset=0mm|HoleType=Round|Shape=RoundedRectangle|*
%AMROUNDEDRECTD14*
21,1,1.1000,1.0750,0,0,180.0*
21,1,0.8250,1.3500,0,0,180.0*
1,1,0.2750,-0.4125,0.5375*
1,1,0.2750,0.4125,0.5375*
1,1,0.2750,0.4125,-0.5375*
1,1,0.2750,-0.4125,-0.5375*
%
%ADD14ROUNDEDRECTD14*%
G04:AMPARAMS|DCode=15|XSize=0.6mm|YSize=1.9mm|CornerRadius=0.15mm|HoleSize=0mm|Usage=FLASHONLY|Rotation=90.000|XOffset=0mm|YOffset=0mm|HoleType=Round|Shape=RoundedRectangle|*
%AMROUNDEDRECTD15*
21,1,0.6000,1.6000,0,0,90.0*
21,1,0.3000,1.9000,0,0,90.0*
1,1,0.3000,0.8000,0.1500*
1,1,0.3000,0.8000,-0.1500*
1,1,0.3000,-0.8000,-0.1500*
1,1,0.3000,-0.8000,0.1500*
%
%ADD15ROUNDEDRECTD15*%
%ADD16C,0.5000*%
%ADD17C,0.2500*%
%ADD18C,0.4000*%
%ADD19C,0.1500*%
%ADD20C,1.0000*%
%ADD21C,2.4000*%
%ADD22O,3.8000X2.5000*%
%ADD23C,3.2000*%
%ADD24C,1.1000*%
G04:AMPARAMS|DCode=25|XSize=8mm|YSize=8mm|CornerRadius=2mm|HoleSize=0mm|Usage=FLASHONLY|Rotation=180.000|XOffset=0mm|YOffset=0mm|HoleType=Round|Shape=RoundedRectangle|*
%AMROUNDEDRECTD25*
21,1,8.0000,4.0000,0,0,180.0*
21,1,4.0000,8.0000,0,0,180.0*
1,1,4.0000,-2.0000,2.0000*
1,1,4.0000,2.0000,2.0000*
1,1,4.0000,2.0000,-2.0000*
1,1,4.0000,-2.0000,-2.0000*
%
%ADD25ROUNDEDRECTD25*%
G04:AMPARAMS|DCode=26|XSize=2.032mm|YSize=2.032mm|CornerRadius=0.508mm|HoleSize=0mm|Usage=FLASHONLY|Rotation=180.000|XOffset=0mm|YOffset=0mm|HoleType=Round|Shape=RoundedRectangle|*
%AMROUNDEDRECTD26*
21,1,2.0320,1.0160,0,0,180.0*
21,1,1.0160,2.0320,0,0,180.0*
1,1,1.0160,-0.5080,0.5080*
1,1,1.0160,0.5080,0.5080*
1,1,1.0160,0.5080,-0.5080*
1,1,1.0160,-0.5080,-0.5080*
%
%ADD26ROUNDEDRECTD26*%
%ADD27P,2.1994X8X202.5*%
%ADD28C,3.0000*%
%ADD29C,1.6000*%
G36*
X694000Y6000D02*
X6000D01*
Y994000D01*
X694000Y994000D01*
X694000Y6000D01*
D02*
G37*
%LPC*%
G36*
X354810Y965460D02*
X352983Y965220D01*
X351280Y964514D01*
X349818Y963392D01*
X348695Y961930D01*
X347990Y960227D01*
X347750Y958400D01*
X347990Y956573D01*
X348695Y954870D01*
X349818Y953408D01*
X351280Y952286D01*
X352983Y951580D01*
X354810Y951340D01*
X356637Y951580D01*
X358340Y952286D01*
X359802Y953408D01*
X360924Y954870D01*
X361630Y956573D01*
X361870Y958400D01*
X361630Y960227D01*
X360924Y961930D01*
X359802Y963392D01*
X358340Y964514D01*
X356637Y965220D01*
X354810Y965460D01*
D02*
G37*
G36*
X334490D02*
X332663Y965220D01*
X330960Y964514D01*
X329497Y963392D01*
X328376Y961930D01*
X327670Y960227D01*
X327430Y958400D01*
X327670Y956573D01*
X328376Y954870D01*
X329497Y953408D01*
X330960Y952286D01*
X332663Y951580D01*
X334490Y951340D01*
X336317Y951580D01*
X338020Y952286D01*
X339482Y953408D01*
X340604Y954870D01*
X341310Y956573D01*
X341550Y958400D01*
X341310Y960227D01*
X340604Y961930D01*
X339482Y963392D01*
X338020Y964514D01*
X336317Y965220D01*
X334490Y965460D01*
D02*
G37*
G36*
X649999Y968086D02*
X646471Y967739D01*
X643078Y966710D01*
X639950Y965038D01*
X637210Y962789D01*
X634960Y960048D01*
X633289Y956921D01*
X632260Y953528D01*
X631912Y949999D01*
X632260Y946471D01*
X633289Y943078D01*
X634960Y939950D01*
X637210Y937210D01*
X639950Y934960D01*
X643078Y933289D01*
X646471Y932260D01*
X649999Y931912D01*
X653528Y932260D01*
X656921Y933289D01*
X660048Y934960D01*
X662789Y937210D01*
X665038Y939950D01*
X666710Y943078D01*
X667739Y946471D01*
X668086Y949999D01*
X667739Y953528D01*
X666710Y956921D01*
X665038Y960048D01*
X662789Y962789D01*
X660048Y965038D01*
X656921Y966710D01*
X653528Y967739D01*
X649999Y968086D01*
D02*
G37*
G36*
X49999D02*
X46471Y967739D01*
X43078Y966710D01*
X39950Y965038D01*
X37210Y962789D01*
X34960Y960048D01*
X33289Y956921D01*
X32260Y953528D01*
X31912Y949999D01*
X32260Y946471D01*
X33289Y943078D01*
X34960Y939950D01*
X37210Y937210D01*
X39950Y934960D01*
X43078Y933289D01*
X46471Y932260D01*
X49999Y931912D01*
X53528Y932260D01*
X56921Y933289D01*
X60048Y934960D01*
X62789Y937210D01*
X65038Y939950D01*
X66709Y943078D01*
X67739Y946471D01*
X68086Y949999D01*
X67739Y953528D01*
X66709Y956921D01*
X65038Y960048D01*
X62789Y962789D01*
X60048Y965038D01*
X56921Y966710D01*
X53528Y967739D01*
X49999Y968086D01*
D02*
G37*
G36*
X370050Y953471D02*
X366395Y952990D01*
X362990Y951579D01*
X360065Y949335D01*
X357821Y946410D01*
X356410Y943005D01*
X355929Y939350D01*
X356410Y935695D01*
X357821Y932290D01*
X360065Y929365D01*
X362990Y927121D01*
X366395Y925710D01*
X370050Y925229D01*
X373705Y925710D01*
X377110Y927121D01*
X380035Y929365D01*
X382279Y932290D01*
X383690Y935695D01*
X384171Y939350D01*
X383690Y943005D01*
X382279Y946410D01*
X380035Y949335D01*
X377110Y951579D01*
X373705Y952990D01*
X370050Y953471D01*
D02*
G37*
G36*
X319250D02*
X315595Y952990D01*
X312190Y951579D01*
X309265Y949335D01*
X307021Y946410D01*
X305610Y943005D01*
X305129Y939350D01*
X305610Y935695D01*
X307021Y932290D01*
X309265Y929365D01*
X312190Y927121D01*
X315595Y925710D01*
X319250Y925229D01*
X322905Y925710D01*
X326310Y927121D01*
X329235Y929365D01*
X331479Y932290D01*
X332890Y935695D01*
X333371Y939350D01*
X332890Y943005D01*
X331479Y946410D01*
X329235Y949335D01*
X326310Y951579D01*
X322905Y952990D01*
X319250Y953471D01*
D02*
G37*
G36*
X187000Y955082D02*
X183667Y954754D01*
X180463Y953782D01*
X177510Y952203D01*
X174921Y950079D01*
X172797Y947490D01*
X171218Y944537D01*
X170246Y941333D01*
X169918Y938000D01*
X170246Y934667D01*
X171218Y931463D01*
X172797Y928510D01*
X174921Y925921D01*
X177510Y923797D01*
X180463Y922218D01*
X183667Y921246D01*
X187000Y920918D01*
X190333Y921246D01*
X193537Y922218D01*
X196490Y923797D01*
X199079Y925921D01*
X201203Y928510D01*
X202782Y931463D01*
X203754Y934667D01*
X204082Y938000D01*
X203754Y941333D01*
X202782Y944537D01*
X201203Y947490D01*
X199079Y950079D01*
X196490Y952203D01*
X193537Y953782D01*
X190333Y954754D01*
X187000Y955082D01*
D02*
G37*
G36*
X344650Y914660D02*
X342823Y914420D01*
X341120Y913715D01*
X339658Y912592D01*
X338535Y911130D01*
X337830Y909427D01*
X337590Y907600D01*
X337830Y905773D01*
X338535Y904070D01*
X339658Y902608D01*
X341120Y901486D01*
X342823Y900780D01*
X344650Y900540D01*
X346477Y900780D01*
X348180Y901486D01*
X349642Y902608D01*
X350764Y904070D01*
X351470Y905773D01*
X351710Y907600D01*
X351470Y909427D01*
X350764Y911130D01*
X349642Y912592D01*
X348180Y913715D01*
X346477Y914420D01*
X344650Y914660D01*
D02*
G37*
G36*
X163330Y907460D02*
X158250D01*
Y896050D01*
X169660D01*
Y901130D01*
X163330Y907460D01*
D02*
G37*
G36*
X155750D02*
X150670D01*
X144340Y901130D01*
Y896050D01*
X155750D01*
Y907460D01*
D02*
G37*
G36*
X370050Y921721D02*
X366395Y921240D01*
X362990Y919829D01*
X360065Y917585D01*
X357821Y914660D01*
X356410Y911255D01*
X355929Y907600D01*
X356410Y903945D01*
X357821Y900540D01*
X360065Y897615D01*
X362990Y895371D01*
X366395Y893960D01*
X370050Y893479D01*
X373705Y893960D01*
X377110Y895371D01*
X380035Y897615D01*
X382279Y900540D01*
X383690Y903945D01*
X384171Y907600D01*
X383690Y911255D01*
X382279Y914660D01*
X380035Y917585D01*
X377110Y919829D01*
X373705Y921240D01*
X370050Y921721D01*
D02*
G37*
G36*
X319250D02*
X315595Y921240D01*
X312190Y919829D01*
X309265Y917585D01*
X307021Y914660D01*
X305610Y911255D01*
X305129Y907600D01*
X305610Y903945D01*
X307021Y900540D01*
X309265Y897615D01*
X312190Y895371D01*
X315595Y893960D01*
X319250Y893479D01*
X322905Y893960D01*
X326310Y895371D01*
X329235Y897615D01*
X331479Y900540D01*
X332890Y903945D01*
X333371Y907600D01*
X332890Y911255D01*
X331479Y914660D01*
X329235Y917585D01*
X326310Y919829D01*
X322905Y921240D01*
X319250Y921721D01*
D02*
G37*
G36*
X169660Y893550D02*
X158250D01*
Y882140D01*
X163330D01*
X169660Y888470D01*
Y893550D01*
D02*
G37*
G36*
X155750D02*
X144340D01*
Y888470D01*
X150670Y882140D01*
X155750D01*
Y893550D01*
D02*
G37*
G36*
X556100Y867565D02*
X554142Y867307D01*
X552318Y866551D01*
X550751Y865349D01*
X549549Y863782D01*
X548793Y861958D01*
X548535Y860000D01*
X548793Y858042D01*
X549549Y856218D01*
X550751Y854651D01*
X552318Y853449D01*
X554142Y852693D01*
X556100Y852435D01*
X558058Y852693D01*
X559882Y853449D01*
X561449Y854651D01*
X562651Y856218D01*
X563407Y858042D01*
X563665Y860000D01*
X563407Y861958D01*
X562651Y863782D01*
X561449Y865349D01*
X559882Y866551D01*
X558058Y867307D01*
X556100Y867565D01*
D02*
G37*
G36*
X143900D02*
X141942Y867307D01*
X140118Y866551D01*
X138551Y865349D01*
X137349Y863782D01*
X136593Y861958D01*
X136335Y860000D01*
X136593Y858042D01*
X137349Y856218D01*
X138551Y854651D01*
X140118Y853449D01*
X141942Y852693D01*
X143900Y852435D01*
X145858Y852693D01*
X147682Y853449D01*
X149249Y854651D01*
X150451Y856218D01*
X151207Y858042D01*
X151465Y860000D01*
X151207Y861958D01*
X150451Y863782D01*
X149249Y865349D01*
X147682Y866551D01*
X145858Y867307D01*
X143900Y867565D01*
D02*
G37*
G36*
X68500Y835073D02*
X63250D01*
Y821250D01*
X83449D01*
X83283Y822941D01*
X82425Y825768D01*
X81032Y828374D01*
X79158Y830658D01*
X76874Y832532D01*
X74268Y833925D01*
X71440Y834783D01*
X68500Y835073D01*
D02*
G37*
G36*
X60750D02*
X55500D01*
X52559Y834783D01*
X49732Y833925D01*
X47126Y832532D01*
X44842Y830658D01*
X42968Y828374D01*
X41575Y825768D01*
X40717Y822941D01*
X40550Y821250D01*
X60750D01*
Y835073D01*
D02*
G37*
G36*
X83449Y818750D02*
X63250D01*
Y804927D01*
X68500D01*
X71440Y805217D01*
X74268Y806075D01*
X76874Y807468D01*
X79158Y809342D01*
X81032Y811626D01*
X82425Y814232D01*
X83283Y817059D01*
X83449Y818750D01*
D02*
G37*
G36*
X60750D02*
X40550D01*
X40717Y817059D01*
X41575Y814232D01*
X42968Y811626D01*
X44842Y809342D01*
X47126Y807468D01*
X49732Y806075D01*
X52559Y805217D01*
X55500Y804927D01*
X60750D01*
Y818750D01*
D02*
G37*
G36*
X505250Y719426D02*
Y710250D01*
X514426D01*
X514230Y711741D01*
X513172Y714295D01*
X511489Y716489D01*
X509295Y718172D01*
X506741Y719230D01*
X505250Y719426D01*
D02*
G37*
G36*
X502750D02*
X501259Y719230D01*
X498705Y718172D01*
X496511Y716489D01*
X494828Y714295D01*
X493770Y711741D01*
X493574Y710250D01*
X502750D01*
Y719426D01*
D02*
G37*
G36*
X192080Y907021D02*
X181920D01*
X180072Y906778D01*
X178349Y906064D01*
X176870Y904930D01*
X175736Y903451D01*
X175022Y901728D01*
X174779Y899880D01*
Y889720D01*
X175022Y887872D01*
X175736Y886150D01*
X176409Y885271D01*
Y848387D01*
X65838Y737815D01*
X64155Y735622D01*
X63747Y734636D01*
X63736Y734625D01*
X56500D01*
X52715Y734127D01*
X49187Y732666D01*
X46158Y730341D01*
X43834Y727313D01*
X42373Y723785D01*
X41875Y720000D01*
X42373Y716215D01*
X43834Y712687D01*
X46158Y709659D01*
X49187Y707334D01*
X52715Y705873D01*
X56500Y705375D01*
X69500D01*
X73285Y705873D01*
X76813Y707334D01*
X79841Y709659D01*
X82166Y712687D01*
X83627Y716215D01*
X84125Y720000D01*
X83627Y723785D01*
X83081Y725103D01*
X194489Y836511D01*
X196172Y838705D01*
X197230Y841259D01*
X197591Y844000D01*
Y885271D01*
X198264Y886150D01*
X198978Y887872D01*
X199221Y889720D01*
Y899880D01*
X198978Y901728D01*
X198264Y903451D01*
X197129Y904930D01*
X195651Y906064D01*
X193928Y906778D01*
X192080Y907021D01*
D02*
G37*
G36*
X514426Y707750D02*
X505250D01*
Y698574D01*
X506741Y698770D01*
X509295Y699828D01*
X511489Y701511D01*
X513172Y703705D01*
X514230Y706259D01*
X514426Y707750D01*
D02*
G37*
G36*
X502750D02*
X493574D01*
X493770Y706259D01*
X494828Y703705D01*
X496511Y701511D01*
X498705Y699828D01*
X501259Y698770D01*
X502750Y698574D01*
Y707750D01*
D02*
G37*
G36*
X444250Y650426D02*
Y641250D01*
X453426D01*
X453230Y642741D01*
X452172Y645295D01*
X450489Y647489D01*
X448295Y649172D01*
X445741Y650230D01*
X444250Y650426D01*
D02*
G37*
G36*
X453426Y638750D02*
X444250D01*
Y629574D01*
X445741Y629770D01*
X448295Y630828D01*
X450489Y632511D01*
X452172Y634705D01*
X453230Y637259D01*
X453426Y638750D01*
D02*
G37*
G36*
X222080Y907021D02*
X211920D01*
X210072Y906778D01*
X208349Y906064D01*
X206870Y904930D01*
X205736Y903451D01*
X205022Y901728D01*
X204779Y899880D01*
Y889720D01*
X205022Y887872D01*
X205736Y886150D01*
X206409Y885271D01*
Y780387D01*
X63838Y637816D01*
X62155Y635622D01*
X61747Y634636D01*
X61736Y634625D01*
X54500D01*
X50715Y634127D01*
X47187Y632666D01*
X44159Y630341D01*
X41834Y627313D01*
X40373Y623785D01*
X39875Y620000D01*
X40373Y616215D01*
X41834Y612687D01*
X44159Y609659D01*
X47187Y607334D01*
X50715Y605873D01*
X54500Y605375D01*
X67500D01*
X71285Y605873D01*
X74812Y607334D01*
X77842Y609659D01*
X80166Y612687D01*
X81627Y616215D01*
X82125Y620000D01*
X81627Y623785D01*
X81081Y625103D01*
X224489Y768511D01*
X226172Y770705D01*
X227230Y773259D01*
X227591Y776000D01*
Y885271D01*
X228264Y886150D01*
X228978Y887872D01*
X229221Y889720D01*
Y899880D01*
X228978Y901728D01*
X228264Y903451D01*
X227129Y904930D01*
X225651Y906064D01*
X223928Y906778D01*
X222080Y907021D01*
D02*
G37*
G36*
X508125Y605326D02*
X505250D01*
Y597250D01*
X512076D01*
Y601375D01*
X511775Y602887D01*
X510919Y604169D01*
X509637Y605025D01*
X508125Y605326D01*
D02*
G37*
G36*
X275000Y950591D02*
X272259Y950230D01*
X269705Y949172D01*
X267511Y947489D01*
X265011Y944989D01*
X263328Y942795D01*
X262270Y940241D01*
X261909Y937500D01*
Y888500D01*
X262270Y885759D01*
X263328Y883205D01*
X265011Y881011D01*
X301909Y844113D01*
Y802796D01*
X301577Y802573D01*
X300803Y801416D01*
X300531Y800050D01*
Y797050D01*
X300803Y795684D01*
X301577Y794527D01*
X302734Y793753D01*
X303157Y793669D01*
X303328Y793255D01*
X303937Y792461D01*
X302928Y791145D01*
X302717Y790635D01*
X301577Y789873D01*
X300803Y788716D01*
X300531Y787350D01*
Y784350D01*
X300803Y782984D01*
X301577Y781827D01*
X302717Y781065D01*
X302928Y780555D01*
X303777Y779449D01*
X303250Y778049D01*
X302734Y777947D01*
X301577Y777173D01*
X300803Y776016D01*
X300531Y774650D01*
Y771650D01*
X300651Y771050D01*
X299729Y769780D01*
X262358D01*
X259944Y769462D01*
X257693Y768530D01*
X255761Y767047D01*
X214403Y725689D01*
X212920Y723757D01*
X211988Y721507D01*
X211670Y719092D01*
Y584272D01*
X211988Y581857D01*
X212920Y579607D01*
X214403Y577675D01*
X246963Y545115D01*
X246880Y543847D01*
X245903Y543097D01*
X244420Y541165D01*
X243488Y538915D01*
X243170Y536500D01*
Y527500D01*
X243488Y525085D01*
X243707Y524556D01*
X243002Y523500D01*
X217500D01*
Y495500D01*
X245500D01*
Y519510D01*
X246770Y520036D01*
X249403Y517403D01*
X251335Y515920D01*
X253585Y514988D01*
X256000Y514670D01*
X439000D01*
X441415Y514988D01*
X443665Y515920D01*
X445597Y517403D01*
X449097Y520903D01*
X450580Y522835D01*
X451512Y525085D01*
X451830Y527500D01*
Y536500D01*
Y542554D01*
X456946Y547670D01*
X495000D01*
X497415Y547988D01*
X499665Y548920D01*
X501597Y550403D01*
X503080Y552335D01*
X504012Y554585D01*
X504330Y557000D01*
X504012Y559415D01*
X503080Y561665D01*
X501597Y563597D01*
X499665Y565080D01*
X497415Y566012D01*
X495000Y566330D01*
X470925D01*
X470299Y567600D01*
X471080Y568618D01*
X472012Y570868D01*
X472330Y573283D01*
Y591393D01*
X472743Y592389D01*
X473086Y595000D01*
X472743Y597611D01*
X471735Y600043D01*
X470132Y602132D01*
X468043Y603735D01*
X465611Y604743D01*
X463000Y605086D01*
X460390Y604743D01*
X457957Y603735D01*
X455868Y602132D01*
X454346Y600149D01*
X454204Y600147D01*
X453076Y601008D01*
Y601375D01*
X452775Y602887D01*
X451919Y604169D01*
X450637Y605025D01*
X449125Y605326D01*
X446250D01*
Y596000D01*
X443750D01*
Y605326D01*
X440875D01*
X439363Y605025D01*
X438081Y604169D01*
X437361Y603090D01*
X436457Y603168D01*
X436091Y603301D01*
Y605500D01*
X435730Y608241D01*
X434672Y610795D01*
X433591Y612204D01*
Y632928D01*
X434861Y633359D01*
X435511Y632511D01*
X437705Y630828D01*
X440259Y629770D01*
X441750Y629574D01*
Y640000D01*
Y650426D01*
X440259Y650230D01*
X437705Y649172D01*
X435511Y647489D01*
X434861Y646641D01*
X433591Y647072D01*
Y655000D01*
X433230Y657741D01*
X432423Y659689D01*
X433167Y660959D01*
X463063D01*
X474909Y649113D01*
Y596000D01*
Y579500D01*
X475270Y576759D01*
X476328Y574205D01*
X478011Y572011D01*
X480205Y570328D01*
X482759Y569270D01*
X485500Y568909D01*
X488241Y569270D01*
X490795Y570328D01*
X492989Y572011D01*
X494672Y574205D01*
X495730Y576759D01*
X496091Y579500D01*
Y587082D01*
X496385Y587305D01*
X497361Y587645D01*
X498363Y586975D01*
X499787Y586692D01*
X499922Y586456D01*
X500146Y585404D01*
X500116Y585384D01*
X499232Y584061D01*
X498922Y582500D01*
Y580750D01*
X504500D01*
X510078D01*
Y582500D01*
X509768Y584061D01*
X508884Y585384D01*
X508715Y585497D01*
X508983Y586845D01*
X509637Y586975D01*
X510919Y587831D01*
X511775Y589113D01*
X512076Y590625D01*
Y594750D01*
X504000D01*
Y596000D01*
X502750D01*
Y605326D01*
X499875D01*
X498363Y605025D01*
X497361Y604355D01*
X496385Y604695D01*
X496091Y604918D01*
Y653500D01*
X495730Y656241D01*
X494672Y658795D01*
X492989Y660989D01*
X474939Y679039D01*
X472745Y680722D01*
X470191Y681780D01*
X467450Y682141D01*
X419169D01*
X418669Y682750D01*
Y685750D01*
X418397Y687116D01*
X417623Y688273D01*
X416466Y689047D01*
X415100Y689319D01*
X414870D01*
X413887Y690600D01*
X414870Y691881D01*
X415100D01*
X416466Y692153D01*
X417623Y692927D01*
X418397Y694084D01*
X418669Y695450D01*
Y698450D01*
X418397Y699816D01*
X417623Y700973D01*
X416466Y701747D01*
X415145Y702010D01*
X414705Y702644D01*
X414503Y702964D01*
X415076Y704072D01*
X415100D01*
X416661Y704382D01*
X417984Y705266D01*
X418868Y706589D01*
X419178Y708150D01*
Y708400D01*
X407100D01*
Y710900D01*
X419178D01*
Y711150D01*
X418868Y712711D01*
X417984Y714034D01*
X416661Y714918D01*
X415100Y715228D01*
X415076D01*
X414503Y716336D01*
X414705Y716656D01*
X415145Y717291D01*
X416466Y717553D01*
X417623Y718327D01*
X418397Y719484D01*
X418669Y720850D01*
Y723850D01*
X418397Y725216D01*
X417623Y726373D01*
X416466Y727147D01*
X415100Y727419D01*
X414870D01*
X413887Y728700D01*
X414870Y729982D01*
X415100D01*
X416466Y730253D01*
X417623Y731027D01*
X418397Y732184D01*
X418669Y733550D01*
Y736550D01*
X418397Y737916D01*
X417623Y739073D01*
X416466Y739847D01*
X415100Y740119D01*
X414870D01*
X413887Y741400D01*
X414870Y742682D01*
X415100D01*
X416466Y742953D01*
X417623Y743727D01*
X418397Y744884D01*
X418669Y746250D01*
Y749250D01*
X418397Y750616D01*
X417623Y751773D01*
X416466Y752547D01*
X415100Y752819D01*
X414870D01*
X413887Y754100D01*
X414870Y755381D01*
X415100D01*
X416466Y755653D01*
X417623Y756427D01*
X418397Y757584D01*
X418669Y758950D01*
Y761950D01*
X418397Y763316D01*
X417623Y764473D01*
X416466Y765247D01*
X415100Y765519D01*
X414870D01*
X413887Y766800D01*
X414870Y768082D01*
X415100D01*
X416466Y768353D01*
X417623Y769127D01*
X418397Y770284D01*
X418669Y771650D01*
Y774650D01*
X418397Y776016D01*
X417623Y777173D01*
X416466Y777947D01*
X415100Y778219D01*
X414870D01*
X413887Y779500D01*
X414870Y780781D01*
X415100D01*
X416466Y781053D01*
X417623Y781827D01*
X418397Y782984D01*
X418669Y784350D01*
Y787350D01*
X418397Y788716D01*
X417623Y789873D01*
X416466Y790647D01*
X415547Y790830D01*
X415018Y791851D01*
X414989Y792189D01*
X415807Y793255D01*
X415973Y793655D01*
X416466Y793753D01*
X417623Y794527D01*
X418397Y795684D01*
X418669Y797050D01*
Y800050D01*
X418397Y801416D01*
X417623Y802573D01*
X417226Y802839D01*
Y850365D01*
X416865Y853106D01*
X415807Y855660D01*
X414124Y857854D01*
X400489Y871489D01*
X382989Y888989D01*
X380795Y890672D01*
X378241Y891730D01*
X375500Y892091D01*
X372759Y891730D01*
X370205Y890672D01*
X368011Y888989D01*
X366328Y886795D01*
X365270Y884241D01*
X364910Y881500D01*
X364944Y881234D01*
X364914Y881000D01*
X365257Y878389D01*
X366265Y875957D01*
X367868Y873868D01*
X369101Y872922D01*
X385511Y856511D01*
X385511Y856511D01*
X396044Y845978D01*
Y801777D01*
X395803Y801416D01*
X395531Y800050D01*
Y797050D01*
X395651Y796450D01*
X395486Y796008D01*
X394791Y795157D01*
X394719Y795120D01*
X392761Y794862D01*
X390511Y793930D01*
X388579Y792447D01*
X341403Y745271D01*
X339920Y743339D01*
X338988Y741088D01*
X338670Y738674D01*
Y591865D01*
X319603Y572797D01*
X318430Y573284D01*
Y628382D01*
X320100D01*
X321466Y628653D01*
X322623Y629427D01*
X323397Y630584D01*
X323669Y631950D01*
Y634950D01*
X323397Y636316D01*
X322623Y637473D01*
X321466Y638247D01*
X320100Y638519D01*
X319252D01*
X318878Y639789D01*
X319870Y641081D01*
X320100D01*
X321466Y641353D01*
X322623Y642127D01*
X323397Y643284D01*
X323669Y644650D01*
Y647650D01*
X323397Y649016D01*
X322623Y650173D01*
X321466Y650947D01*
X320950Y651049D01*
X320423Y652449D01*
X321272Y653555D01*
X321483Y654065D01*
X322623Y654827D01*
X323397Y655984D01*
X323669Y657350D01*
Y660350D01*
X323397Y661716D01*
X322623Y662873D01*
X321483Y663635D01*
X321272Y664145D01*
X320462Y665200D01*
X321272Y666255D01*
X321483Y666765D01*
X322623Y667527D01*
X323397Y668684D01*
X323669Y670050D01*
Y673050D01*
X323397Y674416D01*
X322623Y675573D01*
X321483Y676335D01*
X321272Y676845D01*
X320763Y677509D01*
X321289Y678908D01*
X321661Y678982D01*
X322984Y679866D01*
X323868Y681189D01*
X324178Y682750D01*
Y683000D01*
X312100D01*
Y685500D01*
X324178D01*
Y685750D01*
X323868Y687311D01*
X322984Y688634D01*
X321661Y689518D01*
X321289Y689592D01*
X320763Y690992D01*
X321272Y691655D01*
X321483Y692165D01*
X322623Y692927D01*
X323397Y694084D01*
X323669Y695450D01*
Y698450D01*
X323397Y699816D01*
X322623Y700973D01*
X321483Y701735D01*
X321272Y702245D01*
X320423Y703351D01*
X320950Y704751D01*
X321466Y704853D01*
X322623Y705627D01*
X323397Y706784D01*
X323669Y708150D01*
Y711150D01*
X323397Y712516D01*
X322623Y713673D01*
X321466Y714447D01*
X320100Y714719D01*
X319252D01*
X318878Y715989D01*
X319870Y717281D01*
X320100D01*
X321466Y717553D01*
X322623Y718327D01*
X323397Y719484D01*
X323669Y720850D01*
Y723850D01*
X323397Y725216D01*
X322623Y726373D01*
X321466Y727147D01*
X320100Y727419D01*
X319870D01*
X318887Y728700D01*
X319870Y729982D01*
X320100D01*
X321466Y730253D01*
X322623Y731027D01*
X323397Y732184D01*
X323669Y733550D01*
Y736550D01*
X323397Y737916D01*
X322623Y739073D01*
X321466Y739847D01*
X320100Y740119D01*
X319870D01*
X318887Y741400D01*
X319870Y742682D01*
X320100D01*
X321466Y742953D01*
X322623Y743727D01*
X323397Y744884D01*
X323669Y746250D01*
Y749250D01*
X323397Y750616D01*
X322623Y751773D01*
X321466Y752547D01*
X320100Y752819D01*
X319870D01*
X318887Y754100D01*
X319870Y755381D01*
X320100D01*
X321466Y755653D01*
X322623Y756427D01*
X323397Y757584D01*
X323669Y758950D01*
Y761950D01*
X323397Y763316D01*
X322623Y764473D01*
X321466Y765247D01*
X320100Y765519D01*
X319870D01*
X318878Y766812D01*
X319252Y768082D01*
X320100D01*
X321466Y768353D01*
X322623Y769127D01*
X323397Y770284D01*
X323669Y771650D01*
Y774650D01*
X324817Y775387D01*
X326591Y775620D01*
X329145Y776678D01*
X331339Y778361D01*
X342489Y789511D01*
X344172Y791705D01*
X345230Y794259D01*
X345591Y797000D01*
Y845000D01*
X345230Y847741D01*
X344172Y850295D01*
X342489Y852489D01*
X294489Y900489D01*
X292295Y902172D01*
X289741Y903230D01*
X287000Y903591D01*
X284361Y903243D01*
X283986Y903290D01*
X283091Y903889D01*
Y933296D01*
X284172Y934705D01*
X285230Y937259D01*
X285591Y940000D01*
X285230Y942741D01*
X284172Y945295D01*
X282489Y947489D01*
X280295Y949172D01*
X277741Y950230D01*
X275000Y950591D01*
D02*
G37*
G36*
X510078Y578250D02*
X505750D01*
Y572422D01*
X506000D01*
X507561Y572732D01*
X508884Y573616D01*
X509768Y574939D01*
X510078Y576500D01*
Y578250D01*
D02*
G37*
G36*
X503250D02*
X498922D01*
Y576500D01*
X499232Y574939D01*
X500116Y573616D01*
X501439Y572732D01*
X503000Y572422D01*
X503250D01*
Y578250D01*
D02*
G37*
G36*
X648500Y575625D02*
X635500D01*
X631715Y575127D01*
X628187Y573666D01*
X625159Y571342D01*
X622834Y568313D01*
X621373Y564785D01*
X620875Y561000D01*
X621373Y557215D01*
X622834Y553687D01*
X625159Y550658D01*
X628187Y548334D01*
X631715Y546873D01*
X635500Y546375D01*
X648500D01*
X652285Y546873D01*
X655813Y548334D01*
X658841Y550658D01*
X661166Y553687D01*
X662627Y557215D01*
X663125Y561000D01*
X662627Y564785D01*
X661166Y568313D01*
X658841Y571342D01*
X655813Y573666D01*
X652285Y575127D01*
X648500Y575625D01*
D02*
G37*
G36*
X482600Y523500D02*
X454600D01*
Y495500D01*
X482600D01*
Y523500D01*
D02*
G37*
G36*
X649500Y475073D02*
X644250D01*
Y461250D01*
X664449D01*
X664283Y462940D01*
X663425Y465768D01*
X662032Y468374D01*
X660158Y470658D01*
X657874Y472532D01*
X655268Y473925D01*
X652440Y474783D01*
X649500Y475073D01*
D02*
G37*
G36*
X641750D02*
X636500D01*
X633559Y474783D01*
X630732Y473925D01*
X628126Y472532D01*
X625842Y470658D01*
X623968Y468374D01*
X622575Y465768D01*
X621717Y462940D01*
X621551Y461250D01*
X641750D01*
Y475073D01*
D02*
G37*
G36*
X664449Y458750D02*
X644250D01*
Y444927D01*
X649500D01*
X652440Y445217D01*
X655268Y446075D01*
X657874Y447468D01*
X660158Y449342D01*
X662032Y451626D01*
X663425Y454232D01*
X664283Y457060D01*
X664449Y458750D01*
D02*
G37*
G36*
X641750D02*
X621551D01*
X621717Y457060D01*
X622575Y454232D01*
X623968Y451626D01*
X625842Y449342D01*
X628126Y447468D01*
X630732Y446075D01*
X633559Y445217D01*
X636500Y444927D01*
X641750D01*
Y458750D01*
D02*
G37*
G36*
X143900Y279965D02*
X141942Y279707D01*
X140118Y278951D01*
X138551Y277749D01*
X137349Y276182D01*
X136593Y274358D01*
X136335Y272400D01*
X136593Y270442D01*
X137349Y268618D01*
X138551Y267051D01*
X140118Y265849D01*
X141942Y265093D01*
X143900Y264835D01*
X145858Y265093D01*
X147682Y265849D01*
X149249Y267051D01*
X150451Y268618D01*
X151207Y270442D01*
X151465Y272400D01*
X151207Y274358D01*
X150451Y276182D01*
X149249Y277749D01*
X147682Y278951D01*
X145858Y279707D01*
X143900Y279965D01*
D02*
G37*
G36*
X165000Y281039D02*
X164220Y280884D01*
X163558Y280442D01*
X163116Y279780D01*
X162961Y279000D01*
Y260000D01*
X162961Y260000D01*
X163116Y259220D01*
X163558Y258558D01*
X163558Y258558D01*
X164220Y258116D01*
X165000Y257961D01*
X545000D01*
X545780Y258116D01*
X546442Y258558D01*
X546884Y259220D01*
X547039Y260000D01*
Y279000D01*
X546884Y279780D01*
X546442Y280442D01*
X545780Y280884D01*
X545000Y281039D01*
X165000Y281039D01*
D02*
G37*
G36*
X320000Y206005D02*
X288006D01*
Y194005D01*
X320000D01*
Y206005D01*
D02*
G37*
G36*
X400002Y216994D02*
X368008D01*
Y185000D01*
X400002D01*
Y216994D01*
D02*
G37*
G36*
X566000Y242106D02*
X490000D01*
X485687Y241682D01*
X481540Y240424D01*
X477718Y238381D01*
X474368Y235632D01*
X471619Y232282D01*
X469576Y228460D01*
X468318Y224313D01*
X467894Y220000D01*
Y180000D01*
X468318Y175687D01*
X469576Y171540D01*
X471619Y167718D01*
X474368Y164368D01*
X477718Y161619D01*
X481540Y159576D01*
X485687Y158318D01*
X490000Y157894D01*
X566000D01*
X570313Y158318D01*
X574460Y159576D01*
X578282Y161619D01*
X581632Y164368D01*
X584381Y167718D01*
X586424Y171540D01*
X587682Y175687D01*
X588106Y180000D01*
Y220000D01*
X587682Y224313D01*
X586424Y228460D01*
X584381Y232282D01*
X581632Y235632D01*
X578282Y238381D01*
X574460Y240424D01*
X570313Y241682D01*
X566000Y242106D01*
D02*
G37*
G36*
X210000D02*
X134000D01*
X129687Y241682D01*
X125540Y240424D01*
X121718Y238381D01*
X118368Y235632D01*
X115619Y232282D01*
X113576Y228460D01*
X112318Y224313D01*
X111894Y220000D01*
Y180000D01*
X112318Y175687D01*
X113576Y171540D01*
X115619Y167718D01*
X118368Y164368D01*
X121718Y161619D01*
X125540Y159576D01*
X129687Y158318D01*
X134000Y157894D01*
X210000D01*
X214313Y158318D01*
X218460Y159576D01*
X222282Y161619D01*
X225632Y164368D01*
X228381Y167718D01*
X230424Y171540D01*
X231682Y175687D01*
X232106Y180000D01*
Y220000D01*
X231682Y224313D01*
X230424Y228460D01*
X228381Y232282D01*
X225632Y235632D01*
X222282Y238381D01*
X218460Y240424D01*
X214313Y241682D01*
X210000Y242106D01*
D02*
G37*
G36*
X413500Y86005D02*
X381507D01*
Y74005D01*
X413500D01*
Y86005D01*
D02*
G37*
G36*
X333502Y95993D02*
X301508D01*
Y64000D01*
X333502D01*
Y95993D01*
D02*
G37*
G36*
X566000Y122106D02*
X490000D01*
X485687Y121682D01*
X481540Y120424D01*
X477718Y118381D01*
X474368Y115632D01*
X471619Y112282D01*
X469576Y108460D01*
X468318Y104313D01*
X467894Y100000D01*
Y60000D01*
X468318Y55687D01*
X469576Y51540D01*
X471619Y47718D01*
X474368Y44368D01*
X477718Y41619D01*
X481540Y39576D01*
X485687Y38318D01*
X490000Y37894D01*
X566000D01*
X570313Y38318D01*
X574460Y39576D01*
X578282Y41619D01*
X581632Y44368D01*
X584381Y47718D01*
X586424Y51540D01*
X587682Y55687D01*
X588106Y60000D01*
Y100000D01*
X587682Y104313D01*
X586424Y108460D01*
X584381Y112282D01*
X581632Y115632D01*
X578282Y118381D01*
X574460Y120424D01*
X570313Y121682D01*
X566000Y122106D01*
D02*
G37*
G36*
X210000D02*
X134000D01*
X129687Y121682D01*
X125540Y120424D01*
X121718Y118381D01*
X118368Y115632D01*
X115619Y112282D01*
X113576Y108460D01*
X112318Y104313D01*
X111894Y100000D01*
Y60000D01*
X112318Y55687D01*
X113576Y51540D01*
X115619Y47718D01*
X118368Y44368D01*
X121718Y41619D01*
X125540Y39576D01*
X129687Y38318D01*
X134000Y37894D01*
X210000D01*
X214313Y38318D01*
X218460Y39576D01*
X222282Y41619D01*
X225632Y44368D01*
X228381Y47718D01*
X230424Y51540D01*
X231682Y55687D01*
X232106Y60000D01*
Y100000D01*
X231682Y104313D01*
X230424Y108460D01*
X228381Y112282D01*
X225632Y115632D01*
X222282Y118381D01*
X218460Y120424D01*
X214313Y121682D01*
X210000Y122106D01*
D02*
G37*
G36*
X649999Y68086D02*
X646471Y67739D01*
X643078Y66709D01*
X639950Y65038D01*
X637210Y62789D01*
X634960Y60048D01*
X633289Y56921D01*
X632260Y53528D01*
X631912Y49999D01*
X632260Y46471D01*
X633289Y43078D01*
X634960Y39950D01*
X637210Y37210D01*
X639950Y34960D01*
X643078Y33289D01*
X646471Y32260D01*
X649999Y31912D01*
X653528Y32260D01*
X656921Y33289D01*
X660048Y34960D01*
X662789Y37210D01*
X665038Y39950D01*
X666710Y43078D01*
X667739Y46471D01*
X668086Y49999D01*
X667739Y53528D01*
X666710Y56921D01*
X665038Y60048D01*
X662789Y62789D01*
X660048Y65038D01*
X656921Y66709D01*
X653528Y67739D01*
X649999Y68086D01*
D02*
G37*
G36*
X49999D02*
X46471Y67739D01*
X43078Y66709D01*
X39950Y65038D01*
X37210Y62789D01*
X34960Y60048D01*
X33289Y56921D01*
X32260Y53528D01*
X31912Y49999D01*
X32260Y46471D01*
X33289Y43078D01*
X34960Y39950D01*
X37210Y37210D01*
X39950Y34960D01*
X43078Y33289D01*
X46471Y32260D01*
X49999Y31912D01*
X53528Y32260D01*
X56921Y33289D01*
X60048Y34960D01*
X62789Y37210D01*
X65038Y39950D01*
X66709Y43078D01*
X67739Y46471D01*
X68086Y49999D01*
X67739Y53528D01*
X66709Y56921D01*
X65038Y60048D01*
X62789Y62789D01*
X60048Y65038D01*
X56921Y66709D01*
X53528Y67739D01*
X49999Y68086D01*
D02*
G37*
%LPD*%
D10*
X425500Y579500D02*
D03*
X444500D02*
D03*
X435000Y556500D02*
D03*
X485500Y579500D02*
D03*
X504500D02*
D03*
X495000Y556500D02*
D03*
D11*
X252500Y536500D02*
D03*
X257500D02*
D03*
X267500D02*
D03*
X272500D02*
D03*
X277500D02*
D03*
X282500D02*
D03*
X287500D02*
D03*
X292500D02*
D03*
X262500D02*
D03*
X307500D02*
D03*
X312500D02*
D03*
X317500D02*
D03*
X322500D02*
D03*
X327500D02*
D03*
X332500D02*
D03*
X357500D02*
D03*
X362500D02*
D03*
X367500D02*
D03*
X372500D02*
D03*
X337500D02*
D03*
X342500D02*
D03*
X347500D02*
D03*
X352500D02*
D03*
X382500D02*
D03*
X387500D02*
D03*
X392500D02*
D03*
X397500D02*
D03*
X402500D02*
D03*
X407500D02*
D03*
X422500D02*
D03*
X427500D02*
D03*
X432500D02*
D03*
X437500D02*
D03*
X442500D02*
D03*
X447500D02*
D03*
X412500D02*
D03*
X417500D02*
D03*
X297500D02*
D03*
X302500D02*
D03*
X377500D02*
D03*
D12*
X468600Y509500D02*
D03*
X231500D02*
D03*
D13*
X286000Y601925D02*
D03*
Y581925D02*
D03*
X269000Y601925D02*
D03*
Y581925D02*
D03*
X279000Y684000D02*
D03*
Y704000D02*
D03*
D14*
X504000Y596000D02*
D03*
X484000D02*
D03*
X445000D02*
D03*
X425000D02*
D03*
D15*
X407100Y646150D02*
D03*
Y633450D02*
D03*
X312100Y646150D02*
D03*
Y633450D02*
D03*
Y658850D02*
D03*
Y671550D02*
D03*
Y684250D02*
D03*
Y696950D02*
D03*
Y709650D02*
D03*
Y722350D02*
D03*
Y735050D02*
D03*
Y747750D02*
D03*
Y760450D02*
D03*
Y773150D02*
D03*
Y785850D02*
D03*
Y798550D02*
D03*
X407100Y658850D02*
D03*
Y671550D02*
D03*
Y684250D02*
D03*
Y696950D02*
D03*
Y709650D02*
D03*
Y722350D02*
D03*
Y735050D02*
D03*
Y747750D02*
D03*
Y760450D02*
D03*
Y773150D02*
D03*
Y785850D02*
D03*
Y798550D02*
D03*
D16*
X247097Y593903D02*
X259075Y581925D01*
X247097Y595000D02*
Y704000D01*
Y593903D02*
Y595000D01*
X269000Y581925D02*
X288000D01*
X312500Y798550D02*
Y848500D01*
X272500Y937500D02*
X275000Y940000D01*
X272500Y888500D02*
Y937500D01*
Y888500D02*
X312500Y848500D01*
X443000Y604000D02*
Y640000D01*
X444500Y579500D02*
Y602500D01*
X443000Y604000D02*
X444500Y602500D01*
X425500Y579500D02*
Y605500D01*
Y573500D02*
Y579500D01*
X410000Y558000D02*
X425500Y573500D01*
X423000Y608000D02*
Y655000D01*
Y608000D02*
X425500Y605500D01*
X274000Y664999D02*
X277999D01*
X284550Y671550D01*
X260000Y637925D02*
Y683785D01*
Y637925D02*
X268000Y629925D01*
X504500Y579500D02*
Y708500D01*
X485500Y596000D02*
Y653500D01*
X295550Y697450D02*
X311600D01*
X289000Y704000D02*
X295550Y697450D01*
X311600D02*
X312100Y696950D01*
X278875Y684125D02*
X311975D01*
X375500Y881500D02*
X393000Y864000D01*
X406635Y798550D02*
Y850365D01*
X393000Y864000D02*
X406635Y850365D01*
X504000Y709000D02*
X504500Y708500D01*
X407100Y658850D02*
X419150D01*
X423000Y655000D01*
X467450Y671550D02*
X485500Y653500D01*
Y579500D02*
Y596000D01*
X407100Y671550D02*
X467450D01*
X287000Y893000D02*
X335000Y845000D01*
Y797000D02*
Y845000D01*
X323850Y785850D02*
X335000Y797000D01*
X312100Y785850D02*
X323850D01*
X259075Y581925D02*
X269000D01*
Y601925D02*
Y628925D01*
X271000Y601925D02*
X286000D01*
X71327Y630327D02*
X217000Y776000D01*
X71327Y629239D02*
Y630327D01*
X62088Y620000D02*
X71327Y629239D01*
X61000Y620000D02*
X62088D01*
X217000Y776000D02*
Y894800D01*
X73327Y730327D02*
X187000Y844000D01*
X73327Y729239D02*
Y730327D01*
X64088Y720000D02*
X73327Y729239D01*
X63000Y720000D02*
X64088D01*
X187000Y844000D02*
Y894800D01*
X154000Y850000D02*
Y891800D01*
X157000Y894800D01*
X124000Y820000D02*
X154000Y850000D01*
X62000Y820000D02*
X124000D01*
X287999Y652999D02*
X290083D01*
X295434Y658350D01*
X311600D01*
X312100Y658850D01*
X284550Y671550D02*
X312100D01*
X247097Y704000D02*
X279000D01*
X260000Y683785D02*
X260215Y684000D01*
X279000D01*
X311975Y684125D02*
X312100Y684250D01*
X279000Y704000D02*
X289000D01*
X503675Y709325D02*
X504000Y709000D01*
X407425Y709325D02*
X503675D01*
X407100Y709650D02*
X407425Y709325D01*
D17*
X437500Y536500D02*
Y547783D01*
X463000Y573283D01*
X442500Y546418D02*
X453082Y557000D01*
X495000D01*
X442500Y536500D02*
Y546418D01*
X428000Y548643D02*
Y553500D01*
X431000Y556500D01*
X435000D01*
X433269Y554585D02*
X435000Y556316D01*
Y556500D01*
X428000Y548643D02*
X430085D01*
X432478Y546250D01*
Y536522D02*
Y546250D01*
Y536522D02*
X432500Y536500D01*
X382250Y607750D02*
Y674250D01*
Y607750D02*
X382500Y607500D01*
Y536500D02*
Y607500D01*
X387400Y638400D02*
X395300Y646300D01*
X387400Y536600D02*
Y638400D01*
X407000Y623000D02*
Y633600D01*
X392500Y608500D02*
X407000Y623000D01*
X392500Y536500D02*
Y608500D01*
X397400Y551000D02*
Y585650D01*
X402500Y536500D02*
Y548500D01*
X402500D02*
X402500D01*
X400000Y551000D02*
X402500Y548500D01*
X397400Y551000D02*
X400000D01*
X397400Y585650D02*
X406000Y594250D01*
X420000Y548643D02*
X422750D01*
X417607Y546250D02*
X420000Y548643D01*
X417607Y536608D02*
Y546250D01*
X377500Y536500D02*
Y675864D01*
X372500Y536500D02*
Y700150D01*
X367500Y536500D02*
Y709500D01*
X393050Y735050D01*
X372500Y700150D02*
X394700Y722350D01*
X377500Y675864D02*
X396990Y695354D01*
X382250Y674250D02*
X391785Y683785D01*
X397400Y536600D02*
Y551000D01*
Y536600D02*
X397500Y536500D01*
X362500D02*
Y715500D01*
X357500Y536500D02*
Y724500D01*
X235000Y714000D02*
X243350Y722350D01*
X235000Y590250D02*
Y714000D01*
Y590250D02*
X272500Y552750D01*
X230000Y715364D02*
X249686Y735050D01*
X230000Y588886D02*
Y715364D01*
Y588886D02*
X267500Y551386D01*
X225500Y717228D02*
X256022Y747750D01*
X225500Y586136D02*
Y717228D01*
Y586136D02*
X262500Y549136D01*
X221000Y719092D02*
X262358Y760450D01*
X221000Y584272D02*
Y719092D01*
Y584272D02*
X257500Y547772D01*
X287500Y536500D02*
Y552000D01*
X284550D02*
X287500D01*
X282500Y549950D02*
X284550Y552000D01*
X282500Y536500D02*
Y549950D01*
X422750Y548643D02*
X428000D01*
X422500Y548393D02*
X422750Y548643D01*
X422500Y536500D02*
Y548393D01*
X427500Y548143D02*
X428000Y548643D01*
X427500Y536500D02*
Y548143D01*
X417500Y536500D02*
X417607Y536608D01*
X287500Y552000D02*
Y581425D01*
X405504Y695354D02*
X407100Y696950D01*
X396990Y695354D02*
X405504D01*
X348000Y738674D02*
X395176Y785850D01*
X348000Y588000D02*
Y738674D01*
X395176Y785850D02*
X407100D01*
X353000Y732000D02*
X394150Y773150D01*
X353000Y586000D02*
Y732000D01*
X394150Y773150D02*
X407100D01*
X357500Y724500D02*
X393450Y760450D01*
X407100D01*
X362500Y715500D02*
X394750Y747750D01*
X407100D01*
X393050Y735050D02*
X407100D01*
X262358Y760450D02*
X312100D01*
X256022Y747750D02*
X312100D01*
X249686Y735050D02*
X312100D01*
X243350Y722350D02*
X312100D01*
X463000Y573283D02*
Y595000D01*
X387400Y536600D02*
X387500Y536500D01*
X442500Y527500D02*
Y536500D01*
X439000Y524000D02*
X442500Y527500D01*
X412500Y524000D02*
X439000D01*
X256000D02*
X412500D01*
X252500Y527500D02*
X256000Y524000D01*
X412500D02*
Y536500D01*
X252500Y527500D02*
Y536500D01*
X312750Y536750D02*
Y545750D01*
X312500Y536500D02*
X312750Y536750D01*
X307500Y536500D02*
Y547500D01*
X268000Y629925D02*
X269000Y628925D01*
X288000Y581925D02*
X288000Y581925D01*
X287500Y581425D02*
X288000Y581925D01*
X297500Y642650D02*
X301000Y646150D01*
X297500Y536500D02*
Y642650D01*
X302500Y536500D02*
Y555143D01*
X287500Y536500D02*
X287750Y536250D01*
X272500Y536500D02*
Y552750D01*
X267500Y536500D02*
Y551386D01*
X262500Y536500D02*
Y549136D01*
X257500Y536500D02*
Y547772D01*
X301000Y646150D02*
X312100D01*
X302500Y555143D02*
X309100Y561743D01*
Y633450D01*
X307500Y547500D02*
X348000Y588000D01*
X312750Y545750D02*
X353000Y586000D01*
X395300Y646300D02*
X407000D01*
X394700Y722350D02*
X407100D01*
X391785Y683785D02*
X406635D01*
X407100Y684250D01*
D18*
X314000Y200005D02*
X294007D01*
X384005Y191000D02*
Y210993D01*
X374008Y200997D02*
X394002D01*
X407500Y80005D02*
X387506D01*
X317505Y70000D02*
Y89993D01*
X307508Y79997D02*
X327502D01*
D19*
X545000Y260000D02*
Y279000D01*
X165000Y260000D02*
Y279000D01*
X545000Y279000D01*
X165000Y260000D02*
X545000Y260000D01*
X-0Y1000000D02*
X0Y0D01*
X-0Y1000000D02*
X700000D01*
Y0D02*
Y1000000D01*
X0Y0D02*
X700000D01*
D20*
X354810Y958400D02*
D03*
X334490D02*
D03*
X344650Y907600D02*
D03*
D21*
X319250D02*
D03*
X370050D02*
D03*
X319250Y939350D02*
D03*
X370050D02*
D03*
D22*
X62000Y820000D02*
D03*
X63000Y720000D02*
D03*
X61000Y620000D02*
D03*
X643000Y460000D02*
D03*
X642000Y561000D02*
D03*
D23*
X649999Y949999D02*
D03*
X49999D02*
D03*
X649999Y49999D02*
D03*
X49999D02*
D03*
D24*
X556100Y860000D02*
D03*
X143900Y272400D02*
D03*
Y860000D02*
D03*
D25*
X546000Y80000D02*
D03*
X154000D02*
D03*
X510000D02*
D03*
X190000D02*
D03*
X154000Y200000D02*
D03*
X546000D02*
D03*
X190000D02*
D03*
X510000D02*
D03*
D26*
X217000Y894800D02*
D03*
X187000D02*
D03*
D27*
X157000D02*
D03*
D28*
X187000Y938000D02*
D03*
D29*
X410000Y558000D02*
D03*
X406000Y594250D02*
D03*
X274000Y664999D02*
D03*
X463000Y595000D02*
D03*
X443000Y640000D02*
D03*
X247097Y595000D02*
D03*
X287000Y893000D02*
D03*
X375000Y881000D02*
D03*
X275000Y940000D02*
D03*
X287999Y652999D02*
D03*
X247097Y704000D02*
D03*
X260000Y683785D02*
D03*
X504000Y709000D02*
D03*
M02*
